<svg preserveAspectRatio="none" overflow="visible" style="display: block;" width="138" height="23.9867" viewBox="0 0 138 23.9867" fill="none" xmlns="http://www.w3.org/2000/svg">
<g id="Group 49">
<path id="Vector" fill-rule="evenodd" clip-rule="evenodd" d="M18.097 0C18.179 0.043 18.288 0.057 18.372 0.097C18.466 0.053 18.575 0.041 18.726 0.027C18.798 0.021 18.882 0.005 18.939 0.019C19.003 0.037 19.069 0.123 19.125 0.169C19.195 0.229 19.272 0.265 19.301 0.329C19.535 0.339 19.728 0.389 19.733 0.629C20.053 0.665 20.204 0.867 20.37 1.055C20.245 1.135 20.125 1.197 20.016 1.301C19.9082 1.39855 19.8209 1.51649 19.759 1.648C19.899 1.896 19.966 2.202 20.121 2.444C20.175 2.529 20.267 2.601 20.297 2.708C20.384 3.013 20.444 3.333 20.599 3.628C20.654 3.734 20.723 3.835 20.776 3.948C20.826 4.056 20.875 4.175 20.934 4.274C20.994 4.374 21.081 4.454 21.137 4.548C21.189 4.636 21.28 4.76 21.314 4.858C21.334 4.917 21.333 4.995 21.349 5.061C21.39 5.236 21.506 5.407 21.525 5.556C21.545 5.723 21.503 5.869 21.392 5.909C21.418 5.979 21.394 6.073 21.367 6.148C21.3111 6.28727 21.2231 6.41132 21.11 6.51C21.0287 6.56254 20.9338 6.59033 20.837 6.59C20.771 6.586 20.698 6.524 20.624 6.529C20.525 6.535 20.484 6.648 20.343 6.617C20.218 6.59 20.093 6.407 20.025 6.291C19.94 6.146 19.892 5.976 19.812 5.858C19.756 5.774 19.65 5.71 19.573 5.626C19.448 5.492 19.368 5.357 19.201 5.282C19.132 5.25 19.049 5.247 18.972 5.219C18.908 5.195 18.841 5.157 18.778 5.132C18.516 5.022 18.208 4.951 17.992 4.787C17.884 4.706 17.805 4.598 17.682 4.531C17.662 4.481 17.642 4.431 17.612 4.389C17.548 4.456 17.519 4.557 17.488 4.655C17.178 5.12 16.838 5.574 16.498 6.017C16.447 6.083 16.424 6.161 16.382 6.239C16.362 6.276 16.323 6.305 16.304 6.344C16.251 6.447 16.243 6.576 16.215 6.69C16.295 6.728 16.405 6.78 16.517 6.795C17.249 6.889 17.843 6.447 18.533 6.635C18.658 6.668 18.881 6.728 18.923 6.83C18.947 6.89 18.923 6.96 18.94 7.034C18.961 7.122 19.017 7.197 19.028 7.325C19.0387 7.42282 19.0202 7.52161 18.975 7.609C18.962 7.889 18.951 8.259 19.081 8.449C19.057 8.627 19.157 8.688 19.17 8.829C19.186 9.006 19.038 9.098 19.037 9.279C19.037 9.317 19.065 9.374 19.072 9.43C19.084 9.542 19.077 9.59 19.134 9.634C19.115 9.922 19.326 9.976 19.32 10.252C19.413 10.262 19.49 10.229 19.558 10.26C19.73 10.335 19.751 10.851 19.551 10.95C19.503 10.973 19.458 10.963 19.418 10.976C19.384 10.986 19.365 11.006 19.322 11.012C19.216 11.852 17.764 11.522 17.748 12.435C17.753 12.455 17.812 12.412 17.826 12.443C17.98 13.133 18.159 13.797 18.331 14.469C18.241 14.619 18.32 14.797 18.366 14.991C18.396 15.118 18.435 15.239 18.454 15.353C19.158 15.095 20.3 15.059 21.072 15.248C21.5966 15.3786 22.092 15.6069 22.532 15.921C23.357 16.511 23.998 17.331 24.283 18.431L24.28 18.433C24.5706 19.5918 24.3928 20.8185 23.785 21.847C23.525 22.27 23.182 22.69 22.785 22.979C22.368 23.28 21.939 23.559 21.422 23.738C20.8415 23.9439 20.2236 24.0227 19.61 23.969C19.0319 23.917 18.4683 23.7583 17.948 23.501C17.0159 23.0418 16.286 22.2549 15.898 21.291C15.6683 20.7349 15.5451 20.1406 15.535 19.539C15.5301 18.9401 15.6503 18.3467 15.888 17.797C16.3049 16.8517 17.0363 16.0799 17.958 15.613C17.907 15.343 17.841 15.013 17.764 14.738C17.527 14.714 17.341 14.861 17.171 14.967C16.651 15.289 16.231 15.75 15.854 16.221C15.344 16.859 14.974 17.648 14.554 18.353C14.621 18.364 14.664 18.288 14.74 18.336C14.79 18.451 14.85 18.648 14.775 18.76C14.695 18.813 14.575 18.825 14.465 18.849C14.414 18.985 14.422 19.109 14.315 19.195C14.222 19.269 14.061 19.313 13.915 19.371C13.85 19.398 13.781 19.434 13.712 19.459C13.643 19.486 13.563 19.499 13.501 19.529C13.472 19.544 13.45 19.579 13.421 19.592C13.271 19.662 13.095 19.656 12.986 19.752C13.103 20.332 12.864 20.854 12.553 21.105C12.22 21.375 11.699 21.517 11.183 21.326C10.821 21.193 10.388 21.092 9.981 20.982C9.855 20.946 9.789 20.902 9.68 20.972C9.652 20.962 9.709 20.916 9.654 20.927C9.602 20.957 9.602 21.03 9.584 21.078C9.14 22.302 8.297 23.163 7.09 23.652C6.66 23.825 6.177 23.95 5.658 23.979C4.542 24.043 3.674 23.698 2.96 23.227C2.247 22.754 1.686 22.136 1.334 21.335C0.956 20.475 0.867 19.342 1.122 18.408C1.368 17.504 1.852 16.788 2.474 16.241C3.082 15.711 3.869 15.259 4.898 15.145C5.968 15.025 7.002 15.318 7.693 15.763C7.895 15.573 8.086 15.302 8.267 15.039C8.327 14.951 8.414 14.863 8.435 14.783C8.443 14.755 8.424 14.731 8.427 14.695C8.432 14.642 8.456 14.581 8.462 14.509C8.48 14.316 8.489 14.053 8.48 13.863C8.4723 13.7288 8.42613 13.5997 8.347 13.491C8.246 13.446 8.18 13.338 8.082 13.287C7.977 13.229 7.869 13.199 7.772 13.137C7.49861 12.9609 7.25463 12.7429 7.049 12.491C6.855 12.409 6.762 12.141 6.659 11.933C6.57263 11.7615 6.50716 11.5802 6.464 11.393C6.42243 11.1694 6.43443 10.9391 6.499 10.721C6.512 10.68 6.546 10.642 6.56 10.598C6.578 10.543 6.571 10.481 6.587 10.43C6.613 10.337 6.683 10.265 6.683 10.164C6.215 10.354 5.837 10.757 5.418 11.057C5.20807 11.2137 4.97969 11.344 4.738 11.445C4.658 11.479 4.56 11.533 4.481 11.544C4.399 11.555 4.306 11.536 4.234 11.552C4.143 11.572 4.05 11.64 3.953 11.675C3.853 11.712 3.743 11.734 3.651 11.772C3.614 11.787 3.583 11.822 3.545 11.834C3.516 11.842 3.485 11.834 3.457 11.842C3.428 11.852 3.406 11.87 3.377 11.879C3.202 11.929 3.017 11.933 2.803 11.939C2.62 11.946 2.398 11.981 2.273 11.957C2.237 11.95 2.202 11.922 2.167 11.914C2.125 11.906 2.082 11.915 2.043 11.906C1.922 11.873 1.8 11.787 1.682 11.73C1.563 11.67 1.436 11.614 1.345 11.526C1.488 11.49 1.664 11.586 1.815 11.571C1.72012 11.4425 1.60653 11.3289 1.478 11.234C1.435 11.207 1.373 11.188 1.327 11.156C1.267 11.114 1.222 11.064 1.15 11.04C1.01 10.996 0.842 10.991 0.69 10.953C0.617888 10.936 0.546778 10.9149 0.477 10.89C0.417 10.87 0.33 10.854 0.31 10.784C0.483 10.776 0.819 10.827 0.99 10.74C0.918 10.726 0.843 10.67 0.76 10.66C0.717 10.656 0.665 10.673 0.62 10.668C0.513 10.658 0.4 10.59 0.291 10.571C0.174 10.551 0.022 10.569 0 10.447C0.285 10.497 0.508 10.481 0.77 10.385C1.015 10.295 1.277 10.214 1.6 10.287C1.56238 10.2135 1.50441 10.1524 1.433 10.111C1.343 10.058 1.178 10.048 1.202 9.917C1.269 9.897 1.306 9.973 1.361 9.987C1.515 10.029 1.624 10.063 1.733 10.128C1.827 10.186 1.896 10.28 2.015 10.35C2.051 10.372 2.101 10.374 2.138 10.394C2.198 10.43 2.234 10.505 2.314 10.493C2.313 10.473 2.26 10.39 2.216 10.413C2.151 10.27 1.971 10.239 1.935 10.067C2.165 10.167 2.41 10.252 2.695 10.297C2.732 10.27 2.568 10.204 2.608 10.174C2.942 10.273 3.113 10.52 3.297 10.774C3.392 10.904 3.496 11.009 3.633 11.084C3.765 11.154 3.923 11.233 4.083 11.278C4.197 11.308 4.262 11.264 4.385 11.251C4.435 11.246 4.485 11.259 4.525 11.251C4.623 11.23 4.747 11.137 4.852 11.065C5.061 10.921 5.226 10.755 5.402 10.586C5.447 10.542 5.496 10.506 5.534 10.462C5.576 10.416 5.601 10.358 5.641 10.312C5.72 10.225 5.827 10.18 5.871 10.056C5.94942 10.0071 6.01547 9.94067 6.064 9.862C6.255 9.75 6.391 9.574 6.594 9.472C6.66 9.439 6.732 9.422 6.806 9.385C6.889 9.342 6.949 9.253 7.036 9.216C7.074 8.958 7.212 8.81 7.355 8.642C7.592 8.358 7.853 8.129 8.265 7.996C8.398 7.954 8.535 7.916 8.662 7.872C8.822 7.818 8.938 7.752 9.105 7.696C9.183 7.668 9.263 7.616 9.335 7.58C9.412 7.541 9.491 7.508 9.557 7.465C9.617 7.423 9.667 7.36 9.733 7.314C9.797 7.269 9.883 7.25 9.945 7.199C9.99 7.162 10.016 7.094 10.06 7.048C10.14 6.961 10.238 6.883 10.316 6.792C10.358 6.741 10.376 6.684 10.414 6.632C10.469 6.556 10.533 6.502 10.582 6.42C10.629 6.345 10.672 6.26 10.723 6.181C10.75 6.143 10.793 6.117 10.821 6.076C10.855 6.026 10.874 5.958 10.909 5.907C11.007 5.767 11.106 5.579 11.219 5.447C11.247 5.414 11.287 5.393 11.316 5.359C11.372 5.297 11.411 5.222 11.467 5.156C11.577 5.028 11.693 4.933 11.821 4.811C11.971 4.67 12.113 4.597 12.308 4.484C12.452 4.399 12.578 4.304 12.758 4.246C12.7337 4.14456 12.6857 4.05032 12.618 3.971C12.534 3.867 12.411 3.787 12.468 3.619C12.568 3.607 12.656 3.583 12.758 3.573C12.802 3.437 12.815 3.269 12.874 3.149C12.978 3.112 13.089 3.083 13.218 3.07C13.334 2.94 13.368 2.724 13.704 2.796C13.7673 2.71933 13.8263 2.64 13.881 2.558C13.966 2.591 14.099 2.556 14.208 2.558C14.249 2.502 14.251 2.408 14.296 2.354C14.355 2.334 14.456 2.355 14.516 2.336C14.588 2.251 14.636 2.138 14.693 2.037C14.799 2.011 14.897 1.98 15.003 1.957C15.065 1.852 15.133 1.757 15.216 1.673C15.316 1.658 15.423 1.65 15.508 1.62C15.518 1.559 15.501 1.455 15.498 1.382C15.6671 1.27273 15.8483 1.18346 16.038 1.116C16.056 1.043 16.035 0.936 16.055 0.866C16.2003 0.797666 16.3556 0.753099 16.515 0.734C16.579 0.664 16.625 0.576 16.675 0.494C16.804 0.445 16.9 0.469 17.036 0.407C17.124 0.367 17.183 0.215 17.257 0.187C17.315 0.164 17.419 0.169 17.497 0.158C17.587 0.145 17.687 0.141 17.753 0.123C17.883 0.09 17.964 0.023 18.097 0ZM6.519 15.603C5.72137 15.3879 4.8777 15.4158 4.096 15.683C3.048 16.043 2.258 16.737 1.779 17.692C1.41095 18.427 1.26665 19.2538 1.364 20.07C1.464 20.885 1.792 21.523 2.231 22.086C2.84 22.866 3.776 23.48 5.034 23.606C6.39 23.743 7.478 23.188 8.201 22.536C8.423 22.334 8.668 22.056 8.862 21.757C8.944 21.634 9.013 21.493 9.111 21.28V21.278C9.165 21.16 9.347 20.838 9.271 20.765C9.151 20.655 9.101 20.873 9.084 20.915C8.85537 21.5404 8.46844 22.0958 7.961 22.527C7.34161 23.0576 6.57077 23.3795 5.758 23.447C4.754 23.54 3.936 23.219 3.309 22.827C2.332 22.218 1.719 21.275 1.522 19.927C1.454 19.457 1.51 19.025 1.628 18.592C1.848 17.792 2.246 17.126 2.805 16.637C3.338 16.172 4.059 15.759 4.935 15.647C5.8 15.534 6.661 15.772 7.271 16.097C7.306 16.117 7.348 16.164 7.395 16.141C7.392 16.095 7.432 16.101 7.44 16.061C7.454 15.985 7.34 15.954 7.262 15.913C7.02539 15.7849 6.77646 15.6811 6.519 15.603ZM19.793 15.461C19.5429 15.4747 19.2942 15.5071 19.049 15.558C18.927 15.585 18.664 15.625 18.579 15.701C18.541 15.734 18.551 15.719 18.554 15.761C18.556 15.782 18.574 15.811 18.572 15.851C18.628 15.871 18.691 15.831 18.74 15.814C18.918 15.757 19.115 15.699 19.323 15.674C19.608 15.637 19.893 15.611 20.198 15.629C20.7197 15.6677 21.228 15.8123 21.692 16.054C22.562 16.502 23.192 17.142 23.567 18.062C23.76 18.53 23.924 19.075 23.886 19.645C23.769 21.385 22.836 22.548 21.533 23.12C21.0337 23.3482 20.491 23.4656 19.942 23.464C19.339 23.464 18.799 23.304 18.359 23.112C17.4903 22.7328 16.7957 22.0411 16.413 21.174C16.1921 20.6957 16.0632 20.18 16.033 19.654C16.009 19.073 16.151 18.517 16.352 18.042C16.6655 17.2806 17.2142 16.6394 17.918 16.212C17.956 16.188 18.028 16.156 18.068 16.124C18.128 16.074 18.098 16.045 18.076 15.955C18.022 15.935 17.966 15.986 17.926 16.008C17.77 16.098 17.628 16.19 17.492 16.293C16.632 16.939 15.89 18.053 15.882 19.45C15.8756 19.9997 15.9748 20.5456 16.174 21.058C16.5107 21.9308 17.147 22.6554 17.969 23.102C18.371 23.327 18.867 23.52 19.402 23.587C19.959 23.657 20.538 23.617 21.082 23.464C21.9959 23.2165 22.7885 22.6449 23.312 21.856H23.314C23.822 21.107 24.2 20.084 23.986 18.866C23.795 17.794 23.289 17.008 22.588 16.426C21.914 15.866 20.95 15.402 19.793 15.461ZM5.54 20.28C5.524 20.272 5.5 20.301 5.46 20.289C5.236 21.199 5.034 22.132 4.867 23.101C5.255 23.175 5.744 23.155 6.107 23.074C5.972 22.317 5.794 21.409 5.638 20.608C5.619 20.511 5.591 20.304 5.54 20.28ZM19.834 20.28C19.634 21.192 19.458 22.13 19.286 23.072C19.6938 23.1596 20.1146 23.1691 20.526 23.1C20.363 22.128 20.146 21.212 19.94 20.287C19.895 20.293 19.872 20.279 19.834 20.279V20.28ZM4.284 21.395C4.09 21.67 3.866 21.962 3.666 22.252C3.621 22.316 3.466 22.492 3.48 22.56C3.494 22.626 3.678 22.69 3.736 22.72C4.021 22.87 4.303 22.997 4.646 23.056C4.864 22.149 5.014 21.173 5.212 20.243C5.173 20.245 5.16 20.22 5.124 20.218C4.858 20.582 4.591 20.958 4.284 21.395ZM20.277 20.218C20.232 20.215 20.221 20.243 20.179 20.243C20.376 21.173 20.525 22.149 20.744 23.056C21.09 22.996 21.378 22.864 21.654 22.72C21.719 22.686 21.9 22.626 21.911 22.55C21.916 22.51 21.861 22.45 21.823 22.393C21.7274 22.2433 21.624 22.0987 21.513 21.96C21.062 21.407 20.68 20.749 20.277 20.218ZM5.813 20.2C5.793 20.272 5.835 20.425 5.858 20.545H5.856C5.966 21.164 6.083 21.741 6.183 22.322C6.224 22.564 6.26 22.802 6.334 23.022C6.73663 22.9187 7.11899 22.7483 7.465 22.518C7.087 21.943 6.653 21.367 6.264 20.776C6.1342 20.5695 5.99194 20.3712 5.838 20.182C5.82879 20.1867 5.82035 20.1927 5.813 20.2ZM19.517 20.2C19.381 20.38 19.257 20.585 19.128 20.783V20.782C18.748 21.365 18.291 21.939 17.924 22.516C18.257 22.728 18.615 22.914 19.056 23.02C19.13 22.8 19.165 22.56 19.206 22.32C19.319 21.663 19.465 21.003 19.569 20.35C19.577 20.305 19.619 20.222 19.56 20.19C19.56 20.186 19.56 20.182 19.552 20.182C19.546 20.192 19.522 20.199 19.517 20.2ZM4.852 20.016C4.018 20.486 3.204 20.979 2.392 21.475C2.623 21.855 2.899 22.187 3.267 22.429C3.83576 21.6553 4.39019 20.8712 4.93 20.077C4.895 20.065 4.895 20.016 4.85 20.014L4.852 20.016ZM20.462 20.086C21.012 20.872 21.555 21.67 22.135 22.427C22.492 22.177 22.774 21.852 23.001 21.473C22.182 20.981 21.378 20.473 20.525 20.013C20.508 20.04 20.48 20.058 20.463 20.085L20.462 20.086ZM6.053 20.004C6.053 20.016 6.037 20.026 6.053 20.032C6.106 20.167 6.183 20.258 6.257 20.376C6.548 20.843 6.853 21.287 7.159 21.729C7.311 21.95 7.486 22.154 7.609 22.385C7.988 22.129 8.313 21.742 8.555 21.322L8.556 21.321C7.82893 20.9446 7.10687 20.5585 6.39 20.163C6.28 20.103 6.138 20.013 6.053 20.004ZM19.32 19.994C18.501 20.448 17.658 20.88 16.834 21.33C17.086 21.74 17.401 22.132 17.781 22.383C17.855 22.223 17.959 22.109 18.055 21.976C18.254 21.699 18.44 21.416 18.631 21.136C18.851 20.813 19.097 20.482 19.285 20.146C19.305 20.111 19.362 20.045 19.322 19.996L19.32 19.994ZM11.658 18.828C11.142 18.826 10.764 19.175 10.597 19.519C10.197 20.345 10.801 21.282 11.693 21.279V21.277C11.8612 21.277 12.0276 21.2422 12.1817 21.1746C12.3357 21.107 12.4741 21.0082 12.588 20.8844C12.7019 20.7607 12.7889 20.6146 12.8434 20.4555C12.898 20.2963 12.919 20.1276 12.905 19.96C12.901 19.918 12.906 19.842 12.86 19.82C12.814 19.835 12.847 19.887 12.851 19.924C12.8668 20.0995 12.845 20.2763 12.787 20.4427C12.7291 20.6091 12.6364 20.7613 12.515 20.889C12.3067 21.0778 12.0436 21.1951 11.764 21.224C11.089 21.274 10.583 20.756 10.517 20.156C10.5025 19.9798 10.5275 19.8025 10.5901 19.6371C10.6527 19.4718 10.7514 19.3224 10.879 19.2C11.065 19.03 11.433 18.857 11.755 18.881C12.088 18.905 12.409 19.086 12.577 19.288C12.605 19.323 12.623 19.41 12.691 19.403C12.706 19.362 12.662 19.318 12.638 19.288C12.5191 19.1433 12.3694 19.027 12.1999 18.9474C12.0304 18.8678 11.8453 18.827 11.658 18.828ZM20.683 19.73C20.68 19.753 20.657 19.761 20.657 19.766C20.649 19.827 20.871 19.939 20.94 19.979C21.672 20.407 22.405 20.896 23.133 21.269C23.317 20.926 23.466 20.549 23.53 20.085C22.584 19.965 21.655 19.827 20.683 19.73ZM4.648 19.738C3.791 19.836 2.755 19.955 1.862 20.083C1.932 20.545 2.069 20.936 2.269 21.268C2.692 21.032 3.101 20.806 3.524 20.543C3.88 20.323 4.236 20.113 4.603 19.889C4.627 19.875 4.745 19.809 4.734 19.766C4.726 19.734 4.688 19.736 4.646 19.74L4.648 19.738ZM19.108 19.73C18.885 19.762 18.655 19.764 18.419 19.783L18.418 19.785C17.739 19.8397 17.0609 19.905 16.384 19.981C16.45 20.417 16.56 20.806 16.738 21.129C17.514 20.709 18.33 20.289 19.083 19.856C19.12 19.832 19.214 19.807 19.197 19.74C19.185 19.7 19.119 19.729 19.108 19.73ZM6.76 20.11C7.396 20.447 8.015 20.802 8.66 21.128C8.73 20.984 8.794 20.837 8.847 20.676C8.161 20.484 7.433 20.286 6.76 20.11ZM11.66 20.331C11.6 20.551 11.571 20.846 11.544 21.066C11.569 21.06 11.568 21.079 11.589 21.076C11.653 20.864 11.693 20.583 11.686 20.331H11.66ZM11.826 20.394C11.809 20.634 11.808 20.846 11.834 21.075C11.951 21.053 12.238 21.005 12.259 20.897C12.274 20.82 12.155 20.685 12.083 20.615V20.617C11.987 20.521 11.89 20.448 11.826 20.394ZM11.489 20.384C11.2596 20.4348 11.0415 20.5277 10.846 20.658C10.974 20.806 11.105 20.953 11.313 21.021C11.411 20.849 11.443 20.611 11.489 20.384ZM6.228 19.724C6.153 19.784 6.267 19.824 6.273 19.848C6.23 19.856 6.21 19.785 6.184 19.83C7.294 20.132 8.418 20.444 9.536 20.723V20.724C9.911 20.817 10.284 20.934 10.667 20.998C10.617 20.912 10.525 20.793 10.457 20.698C10.32 20.726 10.211 20.782 10.084 20.821C9.856 20.739 9.574 20.711 9.36 20.617C9.411 20.407 9.463 20.201 9.474 19.953C9.414 19.959 9.384 19.939 9.324 19.943C9.29715 20.1593 9.25267 20.373 9.191 20.582C9.101 20.548 8.975 20.55 8.9 20.502C8.94421 20.3303 8.97926 20.1564 9.005 19.981C8.101 19.874 7.153 19.811 6.228 19.724ZM11.897 20.226C11.85 20.269 11.977 20.343 12.02 20.376C12.175 20.495 12.343 20.628 12.472 20.721C12.476 20.697 12.508 20.701 12.507 20.669H12.505C12.308 20.515 12.118 20.356 11.897 20.226ZM9.802 19.981C9.796 20.013 9.82 20.015 9.82 20.041C9.7956 20.2133 9.76558 20.3847 9.73 20.555V20.551C9.721 20.598 9.682 20.663 9.75 20.684C9.74867 20.6573 9.75667 20.6397 9.774 20.631C9.972 20.567 10.162 20.495 10.367 20.437C10.3368 20.3069 10.322 20.1736 10.323 20.04C10.259 20 10.135 20.017 10.048 19.996C10.096 20.149 10.161 20.286 10.217 20.429C10.172 20.436 10.207 20.482 10.154 20.492C10.119 20.498 10.087 20.472 10.057 20.449C10.0106 20.3191 9.9452 20.1968 9.863 20.086C9.857 20.045 9.877 20.029 9.88 19.998C9.85541 19.9871 9.82888 19.9814 9.802 19.981ZM12.684 19.924C12.479 19.944 12.314 20.08 12.1 20.12C12.244 20.267 12.385 20.42 12.63 20.464C12.688 20.334 12.73 20.1 12.684 19.924ZM11.44 20.167C11.197 20.204 10.943 20.307 10.71 20.386C10.704 20.423 10.733 20.423 10.728 20.458C10.85 20.42 10.969 20.362 11.091 20.316C11.213 20.27 11.345 20.245 11.441 20.166L11.44 20.167ZM14.605 18.428C14.27 18.505 13.738 18.572 13.393 18.658C13.387 18.735 13.408 18.785 13.446 18.818C13.646 18.794 13.818 18.742 14.02 18.719C14.03 18.804 14.056 18.875 14.056 18.968C13.351 19.313 12.587 19.598 11.863 19.923C11.74 19.804 11.553 19.886 11.526 19.985C11.443 20.309 11.932 20.325 11.906 20.013C12.693 19.72 13.409 19.39 14.214 19.103C14.352 19.033 14.299 18.822 14.267 18.67C14.419 18.659 14.544 18.619 14.682 18.591C14.672 18.541 14.683 18.413 14.602 18.431L14.605 18.428ZM10.669 19.998C10.677 20.056 10.649 20.152 10.687 20.182C10.848 20.168 11.019 20.085 11.173 20.032C11.007 20.006 10.837 20.025 10.667 19.996L10.669 19.998ZM20.596 19.411C20.584 19.3181 20.5516 19.2291 20.5011 19.1502C20.4505 19.0714 20.3832 19.0047 20.3038 18.955C20.2245 18.9052 20.1351 18.8737 20.0421 18.8627C19.9491 18.8516 19.8548 18.8613 19.766 18.891C19.807 18.984 19.876 19.053 19.924 19.139C20.141 19.166 20.277 19.277 20.288 19.474C20.314 19.94 19.602 19.988 19.562 19.537C19.557 19.498 19.576 19.45 19.57 19.413C19.555 19.335 19.466 19.264 19.404 19.21C19.3673 19.2439 19.338 19.285 19.318 19.3308C19.298 19.3766 19.2878 19.426 19.288 19.476C19.275 19.875 19.575 20.208 19.987 20.175C20.381 20.141 20.637 19.767 20.597 19.413L20.596 19.411ZM5.496 18.856C5.103 18.851 4.831 19.089 4.796 19.421C4.76 19.775 5.023 20.145 5.415 20.173C5.49302 20.1792 5.5715 20.17 5.646 20.146V20.149C5.7871 20.0969 5.90785 20.0011 5.99061 19.8755C6.07337 19.75 6.11381 19.6012 6.106 19.451C7.523 19.548 8.932 19.655 10.342 19.759C10.342 19.715 10.36 19.691 10.36 19.646C8.93228 19.5474 7.50555 19.4351 6.08 19.309C6.047 19.229 6.018 19.142 5.94 19.105C5.882 19.173 5.81 19.23 5.753 19.299C5.903 19.551 5.736 19.859 5.47 19.865C5.41899 19.8659 5.36838 19.8559 5.32156 19.8357C5.27473 19.8154 5.23278 19.7854 5.1985 19.7476C5.16422 19.7098 5.13841 19.6652 5.12281 19.6166C5.1072 19.568 5.10215 19.5167 5.108 19.466C5.123 19.293 5.255 19.223 5.337 19.104C5.397 19.0147 5.45 18.932 5.496 18.856ZM10.924 19.378C10.911 19.41 10.874 19.417 10.871 19.456C11.013 19.58 11.183 19.698 11.331 19.81H11.329C11.375 19.846 11.422 19.907 11.489 19.907C11.491 19.9 11.489 19.889 11.498 19.889C11.483 19.833 11.421 19.801 11.374 19.766C11.2176 19.6503 11.0699 19.5232 10.932 19.386C10.932 19.3793 10.9293 19.3767 10.924 19.378ZM10.861 19.705C10.73 19.672 10.688 19.732 10.685 19.881C10.864 19.861 11.035 19.899 11.179 19.899C11.081 19.879 10.97 19.733 10.861 19.705ZM23.444 18.6C22.537 18.845 21.612 19.151 20.702 19.422C20.705 19.452 20.716 19.474 20.712 19.511C21.645 19.654 22.644 19.732 23.559 19.892C23.605 19.439 23.564 18.943 23.444 18.6ZM1.957 18.598C1.834 18.855 1.784 19.471 1.834 19.891C2.752 19.724 3.771 19.661 4.681 19.501C4.676 19.463 4.697 19.451 4.691 19.412H4.689C3.764 19.154 2.886 18.852 1.957 18.599V18.598ZM11.791 19.052C11.778 19.296 11.69 19.557 11.728 19.794C11.786 19.778 11.784 19.694 11.791 19.645C11.816 19.442 11.834 19.238 11.861 19.06C11.834 19.063 11.824 19.046 11.791 19.052ZM16.509 18.53C16.3902 18.931 16.3421 19.3495 16.367 19.767C17.1879 19.697 18.008 19.6173 18.827 19.528C18.957 19.514 19.148 19.544 19.172 19.458L19.171 19.414C18.311 19.09 17.397 18.823 16.509 18.53ZM12.065 19.158C12.031 19.363 11.952 19.57 11.932 19.759C12.024 19.718 12.115 19.677 12.224 19.626C12.296 19.593 12.472 19.536 12.48 19.457H12.482C12.488 19.4 12.4 19.329 12.331 19.271C12.241 19.196 12.153 19.121 12.065 19.158ZM11.552 19.051C11.367 19.081 11.205 19.134 11.092 19.237C11.255 19.402 11.409 19.621 11.585 19.741C11.597 19.566 11.573 19.361 11.578 19.201C11.579 19.145 11.604 19.083 11.552 19.051ZM18.165 14.656C18.135 14.664 18.095 14.656 18.059 14.674C18.283 15.634 18.559 16.639 18.801 17.61C18.836 17.752 18.857 17.908 18.906 18.034C18.948 18.14 19.053 18.249 19.128 18.354C19.325 18.627 19.508 18.897 19.693 19.158C19.73 19.208 19.798 19.254 19.799 19.326C19.77 19.361 19.674 19.331 19.666 19.387C19.729 19.512 19.964 19.518 19.967 19.352C19.969 19.286 19.915 19.238 19.862 19.174C19.632 18.894 19.471 18.627 19.278 18.344C19.2 18.228 19.106 18.11 19.057 17.998C18.951 17.754 18.914 17.449 18.836 17.168C18.606 16.336 18.399 15.438 18.165 14.656ZM9.827 19.026C9.837 19.186 9.851 19.283 9.854 19.442C10.059 19.448 10.244 19.47 10.447 19.477C10.5563 19.2695 10.71 19.0885 10.897 18.947C10.534 18.965 10.183 18.999 9.827 19.027V19.026ZM8.404 15.18C8.132 15.518 7.882 15.885 7.619 16.24C7.427 16.502 7.219 16.758 7.026 17.001C6.957 17.088 6.904 17.184 6.84 17.275C6.593 17.626 6.322 17.966 6.061 18.311L5.671 18.824C5.541 18.997 5.38 19.175 5.335 19.399C5.367 19.439 5.415 19.463 5.486 19.46C5.515 19.415 5.5 19.327 5.504 19.257C6.474 17.947 7.454 16.644 8.422 15.33C8.404 15.265 8.432 15.247 8.404 15.18ZM9.324 19.063C9.334 19.19 9.349 19.295 9.352 19.407C9.409 19.401 9.447 19.414 9.5 19.414C9.5 19.28 9.48 19.2 9.483 19.055C9.411 19.053 9.38 19.063 9.324 19.063ZM8.978 19.086C8.338 19.147 7.67 19.176 7.042 19.247C7.707 19.287 8.36 19.34 9.023 19.38C9.01 19.28 9.031 19.146 8.978 19.086ZM5.601 19.247C5.601 19.271 5.564 19.289 5.601 19.3C5.607 19.294 5.621 19.25 5.601 19.247ZM8.281 15.905C8.253 15.942 8.154 16.048 8.157 16.074C8.159 16.094 8.27 16.167 8.309 16.197C8.369 16.245 8.425 16.287 8.459 16.321C9.108 16.965 9.657 17.797 9.794 18.867C9.664 18.861 9.561 18.883 9.44 18.885C9.29413 17.9048 8.78602 17.0149 8.016 16.391C7.96952 16.4241 7.93065 16.4667 7.902 16.516C8.423 16.936 8.816 17.5 9.079 18.17C9.165 18.393 9.261 18.638 9.273 18.904C9.169 18.902 9.083 18.922 8.981 18.922C8.953 18.792 8.926 18.658 8.893 18.532C8.476 18.672 8.039 18.803 7.619 18.93C7.477 18.973 7.334 19.05 7.195 19.073C7.045 19.095 6.886 19.085 6.734 19.098C6.588 19.11 6.444 19.137 6.292 19.125C6.726 19.015 7.142 18.869 7.564 18.736C7.984 18.601 8.413 18.483 8.829 18.336C8.71777 18.0451 8.57597 17.7669 8.406 17.506C8.374 17.46 8.268 17.28 8.21 17.276C8.141 17.271 8.013 17.441 7.946 17.497C7.327 18.008 6.696 18.591 6.124 19.088C6.186 19.09 6.249 19.092 6.283 19.124C6.255 19.161 6.146 19.116 6.123 19.159C6.217 19.207 6.335 19.174 6.433 19.167C7.385 19.1 8.293 19.015 9.246 18.946C9.828 18.904 10.411 18.851 10.988 18.812C10.886 18.262 10.776 17.716 10.678 17.159C10.428 17.002 10.145 16.873 9.901 16.709C9.744 17.053 9.694 17.503 9.6 17.91C9.577 17.82 9.498 17.747 9.565 17.664C9.485 17.699 9.458 17.558 9.414 17.495C9.468 17.527 9.554 17.513 9.6 17.487C9.617 17.43 9.619 17.383 9.592 17.337C9.416 17.281 9.208 17.208 9.177 17.035C9.242 17.023 9.581 17.255 9.627 17.141C9.634 17.125 9.571 17.053 9.547 17.026C9.434 16.903 9.33 16.799 9.263 16.663C9.23 16.655 9.249 16.703 9.21 16.689C9.199 16.641 9.197 16.583 9.14 16.583C9.093 16.679 9.1 16.832 9.016 16.893C9.003 16.846 8.962 16.828 8.946 16.787C9.013 16.673 9.03 16.505 9.052 16.345C8.992 16.334 8.956 16.287 8.902 16.274C8.869 16.267 8.842 16.28 8.812 16.274C8.706 16.251 8.635 16.176 8.565 16.089L8.563 16.091C8.601 15.917 8.453 15.854 8.422 15.72C8.38 15.779 8.345 15.819 8.281 15.905ZM17.165 17.273C16.908 17.574 16.717 17.939 16.563 18.343C17.347 18.569 18.139 18.851 18.925 19.077C19.015 19.103 19.234 19.175 19.269 19.14C19.309 19.098 19.211 19.027 19.189 19.006C18.889 18.74 18.549 18.451 18.251 18.194C17.977 17.957 17.735 17.723 17.456 17.495V17.494C17.371 17.424 17.255 17.286 17.165 17.273ZM2.737 17.143C2.40795 17.4973 2.16079 17.9196 2.013 18.38C2.93 18.637 3.859 18.926 4.789 19.141C4.784 19.116 4.821 19.094 4.824 19.086C4.831 19.056 4.791 19.008 4.739 18.959L4.595 18.832C3.983 18.266 3.351 17.648 2.737 17.143ZM22.667 17.141C22.668 17.124 22.639 17.143 22.639 17.149C22.033 17.661 21.399 18.276 20.799 18.829C20.733 18.891 20.553 19.027 20.57 19.086C20.572 19.096 20.608 19.117 20.605 19.141V19.139C21.535 18.925 22.466 18.635 23.383 18.379C23.2334 17.9209 22.9895 17.4991 22.667 17.141ZM12.855 18.081C12.632 18.023 12.445 18.125 12.219 18.151H12.216C11.951 18.18 11.649 18.181 11.428 18.168C11.449 18.373 11.5 18.545 11.544 18.726C11.949 18.707 12.241 18.812 12.464 18.974C12.523 19.018 12.584 19.1 12.64 19.116C12.728 19.142 12.868 19.116 12.942 19.107C13.0308 19.0954 13.117 19.0691 13.197 19.029C13.25 19 13.35 18.914 13.341 18.886C13.338 18.896 13.302 18.91 13.305 18.896C13.32 18.84 13.275 18.773 13.278 18.7C13.19 18.663 13.114 18.654 13.066 18.577C13.02 18.5 13.039 18.404 13.006 18.311C12.968 18.209 12.882 18.164 12.855 18.081ZM21.461 16.258C21.271 16.683 21.051 17.118 20.86 17.558C20.698 17.935 20.507 18.31 20.357 18.681C20.337 18.731 20.304 18.786 20.314 18.841C20.374 18.897 20.423 18.805 20.454 18.778C21.144 18.186 21.869 17.595 22.513 16.975C22.2 16.697 21.885 16.423 21.461 16.258ZM3.921 16.255C3.505 16.426 3.186 16.694 2.877 16.971C3.523 17.593 4.257 18.193 4.937 18.776C4.974 18.808 5.021 18.897 5.088 18.839V18.837C4.72528 17.9645 4.33676 17.1035 3.921 16.255ZM10.973 17.338C11.055 17.827 11.154 18.301 11.247 18.778C11.31 18.772 11.354 18.782 11.397 18.744C11.282 18.316 11.212 17.843 11.114 17.399C11.074 17.392 11.039 17.317 10.974 17.338H10.973ZM19.898 15.933C19.438 15.923 19.091 16.027 18.758 16.144C18.993 16.812 19.261 17.481 19.508 18.124C19.594 18.343 19.655 18.575 19.784 18.771C19.832 18.324 19.844 17.841 19.864 17.356C19.883 16.876 19.906 16.383 19.898 15.933ZM5.504 15.933C5.496 15.935 5.496 15.945 5.496 15.958C5.486 15.958 5.486 15.967 5.478 15.967C5.522 16.893 5.529 17.859 5.601 18.76C5.657 18.74 5.669 18.675 5.69 18.628C5.71533 18.576 5.73867 18.5233 5.76 18.47C6.057 17.691 6.353 16.917 6.635 16.144C6.305 16.029 5.96 15.924 5.504 15.933ZM20.137 15.931C20.1263 15.9337 20.1207 15.942 20.12 15.956C20.067 16.851 20.031 17.856 20.04 18.752C20.457 17.902 20.901 17.077 21.261 16.17C20.9014 16.0324 20.5225 15.9517 20.138 15.931H20.137ZM5.247 15.929C4.827 15.9597 4.45567 16.0397 4.133 16.169C4.292 16.629 4.526 17.05 4.726 17.476C4.904 17.854 5.093 18.239 5.274 18.599C5.298 18.649 5.308 18.718 5.363 18.749C5.345 17.83 5.34 16.82 5.265 15.929H5.247ZM6.218 18.681H6.22L6.223 18.677L6.218 18.681ZM7.678 16.744C7.18067 17.379 6.69558 18.0234 6.223 18.677C6.848 18.156 7.483 17.643 8.076 17.09C7.949 16.968 7.838 16.832 7.678 16.744ZM13.57 17.788C13.544 17.8533 13.5111 17.9156 13.472 17.974C13.597 17.966 13.772 17.916 13.79 18.054C13.71 18.093 13.675 18.029 13.613 18.037C13.513 18.048 13.421 18.242 13.284 18.257C13.474 18.251 13.682 18.187 13.844 18.125C13.876 18.125 13.877 18.157 13.897 18.17C13.781 18.282 13.601 18.33 13.435 18.39C13.449 18.405 13.478 18.406 13.488 18.427C13.642 18.43 13.751 18.353 13.878 18.357C13.927 18.335 13.962 18.3 14.018 18.286L14.022 18.284C14.066 18.29 14.06 18.346 14.092 18.364C14.0205 18.4176 13.9393 18.4569 13.853 18.48C13.996 18.502 14.156 18.463 14.225 18.381C14.108 18.125 13.829 18.024 13.675 17.824C13.6425 17.8056 13.6069 17.7934 13.57 17.788ZM18.18 16.398C17.861 16.598 17.56 16.816 17.314 17.088H17.315C17.719 17.463 18.172 17.851 18.589 18.202C18.611 18.222 18.646 18.255 18.678 18.247C18.665 18.233 18.648 18.223 18.642 18.202C18.507 17.585 18.352 16.992 18.19 16.407C18.188 16.401 18.188 16.396 18.18 16.397V16.398ZM17.513 14.288C17.399 14.337 17.272 14.375 17.167 14.43C17.071 14.48 16.985 14.537 16.893 14.597C16.3637 14.9503 15.8972 15.3897 15.513 15.897C14.996 16.577 14.64 17.393 14.151 18.107C14.223 18.117 14.227 18.196 14.292 18.213C14.734 17.467 15.115 16.675 15.628 16.002V16.005C16.138 15.335 16.742 14.751 17.564 14.395C17.548 14.362 17.57 14.289 17.52 14.289L17.513 14.288ZM12.106 17.106C12.006 17.263 11.866 17.379 11.779 17.548C11.829 17.596 11.847 17.673 11.912 17.681C11.999 17.691 12.07 17.55 12.195 17.583C12.219 17.718 12.148 17.761 12.142 17.866C12.107 17.845 12.103 17.88 12.106 17.92C12.344 18.05 12.448 17.851 12.646 17.822C12.7149 17.8132 12.7848 17.8225 12.849 17.849C12.878 17.91 12.915 17.96 12.911 18.053C12.974 18.077 12.987 18.153 13.052 18.176C13.085 17.966 13.346 17.853 13.361 17.691C13.276 17.631 13.211 17.545 13.131 17.478C13.091 17.444 12.951 17.358 12.91 17.347C12.7728 17.3152 12.6299 17.3179 12.494 17.355C12.454 17.367 12.435 17.409 12.397 17.417C12.342 17.4257 12.2867 17.4159 12.238 17.389C12.248 17.319 12.272 17.262 12.283 17.194C12.227 17.162 12.172 17.128 12.106 17.106ZM19.102 17.806C19.122 17.893 19.125 18.006 19.208 18.01V18.008C19.145 17.859 19.1 17.691 19.039 17.54C19.055 17.617 19.081 17.714 19.102 17.806ZM17.339 13.481C17.22 13.545 17.086 13.591 16.967 13.641C16.384 13.881 15.949 14.271 15.552 14.684C15.393 14.849 15.26 15.035 15.109 15.224C14.819 15.59 14.609 16.02 14.35 16.427C14.097 16.824 13.831 17.204 13.483 17.522C13.657 17.71 13.878 17.848 14.084 18.001H14.086C14.302 17.631 14.524 17.269 14.74 16.904C14.956 16.54 15.153 16.164 15.42 15.825C15.675 15.502 15.954 15.195 16.27 14.923C16.586 14.653 16.945 14.396 17.34 14.234C17.41 14.205 17.485 14.197 17.51 14.154C17.533 14.108 17.469 13.909 17.446 13.817C17.413 13.68 17.397 13.566 17.349 13.481H17.339ZM11.494 17.655C11.408 17.665 11.379 17.799 11.379 17.93C11.518 17.946 11.706 17.931 11.839 17.912C11.79 17.874 11.603 17.644 11.494 17.655ZM6.954 16.258C6.718 16.732 6.446 17.218 6.292 17.744C6.589 17.287 6.942 16.838 7.22 16.391C7.13359 16.3423 7.04481 16.2979 6.954 16.258ZM11.776 16.835C11.6301 17.019 11.4543 17.1772 11.256 17.303C11.313 17.332 11.377 17.375 11.441 17.408C11.504 17.444 11.594 17.46 11.602 17.524C11.602 17.534 11.589 17.537 11.602 17.541C11.682 17.464 11.61 17.233 11.742 17.205C11.753 17.067 11.85 17.015 11.892 16.905C11.8785 16.886 11.8612 16.87 11.8413 16.8579C11.8213 16.8459 11.7991 16.8381 11.776 16.835ZM17.259 13.103C16.969 13.167 16.693 13.283 16.454 13.43C16.221 13.574 15.99 13.713 15.774 13.871C15.349 14.184 15.012 14.601 14.677 15.021C14.613 15.101 14.56 15.207 14.501 15.303C14.086 15.974 13.767 16.72 13.184 17.231H13.185C13.215 17.284 13.278 17.301 13.309 17.354C13.319 17.287 13.392 17.264 13.432 17.224C13.724 16.909 13.943 16.537 14.156 16.152C14.646 15.274 15.189 14.438 15.986 13.88C16.186 13.742 16.381 13.582 16.597 13.465C16.765 13.375 16.943 13.315 17.127 13.244C17.183 13.223 17.264 13.194 17.287 13.155C17.294 13.122 17.27 13.117 17.259 13.103ZM11.406 16.577C11.294 16.807 11.07 16.925 10.936 17.135C11.004 17.151 11.039 17.197 11.105 17.215C11.199 17.088 11.249 16.917 11.432 16.878C11.515 16.798 11.606 16.592 11.406 16.577ZM17.562 7.743C17.466 7.793 17.335 7.816 17.227 7.867C17.185 7.887 17.153 7.921 17.112 7.937C17.042 7.965 16.948 7.972 16.863 7.99C16.78 8.007 16.695 8.04 16.616 8.052H16.62C16.286 8.106 15.91 8.084 15.55 8.113C15.4561 8.34742 15.3403 8.57242 15.204 8.785C15.09 8.947 14.909 9.077 14.744 9.225C14.5877 9.36964 14.4286 9.51133 14.267 9.65C13.895 9.97 13.577 10.389 13.178 10.65C12.912 10.823 12.588 10.926 12.241 11.03C11.971 11.112 11.679 11.147 11.454 11.287C11.215 11.436 11.214 11.692 11.162 12.04C11.111 12.39 11.092 12.734 11.022 13.065C10.984 13.233 10.964 13.405 10.906 13.533C10.878 13.597 10.816 13.681 10.773 13.755C10.727 13.833 10.649 13.902 10.64 13.984C10.626 14.123 10.7 14.336 10.728 14.487C10.796 14.846 10.844 15.167 10.914 15.487C10.95 15.65 10.952 15.86 11.012 15.99C11.055 16.086 11.162 16.101 11.259 16.159C11.519 16.319 11.724 16.663 11.949 16.848C12.038 16.865 12.094 16.934 12.169 16.981C12.417 17.131 12.689 17.229 13.106 17.167C13.859 16.497 14.158 15.45 14.796 14.683C14.959 14.483 15.12 14.303 15.291 14.135C15.467 13.96 15.665 13.827 15.874 13.675C16.072 13.532 16.274 13.375 16.502 13.259C16.735 13.142 16.992 13.069 17.254 12.96C17.227 12.858 17.217 12.737 17.174 12.65C17.1976 12.6233 17.2101 12.5886 17.209 12.553C17.1943 12.4241 17.1589 12.2985 17.104 12.181C17.067 12.112 17.015 12.081 17.006 12.022C16.964 11.756 17.179 11.722 17.378 11.686C17.501 11.496 17.8 11.447 17.996 11.324C18.03 11.304 18.094 11.256 18.076 11.235C17.985 11.261 17.875 11.263 17.767 11.307C17.698 11.337 17.66 11.393 17.599 11.406C17.5228 11.4211 17.4437 11.4088 17.3756 11.3713C17.3076 11.3338 17.255 11.2735 17.227 11.201C17.097 10.861 17.4 10.657 17.634 10.591C17.624 10.513 17.661 10.441 17.669 10.361C17.675 10.3 17.689 10.19 17.686 10.157C17.682 10.114 17.642 10.085 17.642 10.043C17.64 9.993 17.676 9.912 17.695 9.848C17.734 9.723 17.762 9.612 17.819 9.521C17.7822 9.41253 17.7642 9.29854 17.766 9.184C17.764 8.961 17.894 8.761 17.906 8.557C17.923 8.312 17.81 8.142 17.783 7.902C17.723 7.836 17.667 7.764 17.562 7.743ZM11.177 16.311C11.11 16.305 11.098 16.373 11.036 16.346V16.391C10.874 16.563 10.64 16.662 10.559 16.914C10.65 16.96 10.769 17.067 10.859 17.054C10.883 17.016 10.822 17.002 10.825 16.957C10.866 16.897 10.903 16.828 10.983 16.806C10.997 16.676 11.093 16.629 11.089 16.479C11.129 16.434 11.18 16.399 11.177 16.311ZM10.76 16.127C10.607 16.213 10.544 16.429 10.363 16.488C10.259 16.524 10.167 16.531 10.071 16.595C10.18 16.697 10.332 16.757 10.468 16.834C10.475 16.744 10.56 16.68 10.592 16.594C10.604 16.564 10.602 16.502 10.619 16.464C10.682 16.319 10.905 16.264 10.823 16.144C10.799 16.13 10.784 16.149 10.76 16.127ZM10.434 15.802C10.305 15.944 10.239 16.149 9.984 16.163C9.949 16.199 9.901 16.223 9.86 16.252H9.858C9.845 16.357 9.754 16.385 9.725 16.472C9.803 16.516 9.887 16.526 9.964 16.552C10.038 16.434 10.148 16.352 10.255 16.269C10.319 16.107 10.469 16.027 10.61 15.942C10.572 15.877 10.498 15.843 10.434 15.802ZM10.151 15.492C10.01 15.572 9.827 15.617 9.691 15.686C9.524 15.769 9.428 15.963 9.196 15.96C9.11 16.02 8.976 16.035 8.886 16.093C8.97891 16.1411 9.08143 16.1677 9.186 16.171C9.297 16.173 9.416 16.218 9.514 16.216C9.669 16.213 9.722 16.129 9.822 16.048C9.938 15.958 10.028 15.936 10.044 15.792C10.11 15.722 10.199 15.676 10.274 15.616C10.2462 15.5634 10.2034 15.5202 10.151 15.492ZM9.966 14.739C9.62 14.882 9.38 15.139 9.081 15.304C9.062 15.508 8.915 15.587 8.843 15.737C9.023 15.732 9.178 15.702 9.276 15.614C9.534 15.537 9.748 15.412 9.976 15.304C9.969 15.112 9.994 14.907 9.983 14.739H9.966ZM10.232 14.739C10.187 14.896 10.169 15.152 10.274 15.251C10.276 15.272 10.26 15.277 10.267 15.304C10.326 15.367 10.357 15.454 10.407 15.527C10.43 15.457 10.374 15.404 10.354 15.332C10.3 15.137 10.339 14.884 10.232 14.739ZM10.762 13.077C10.692 13.259 10.502 13.288 10.354 13.396C10.23 13.486 10.129 13.626 10.01 13.748C9.912 13.851 9.832 13.974 9.736 14.068C9.667 14.134 9.58 14.162 9.497 14.226C9.342 14.346 9.107 14.482 8.897 14.5C8.789 14.508 8.689 14.488 8.647 14.535L8.649 14.537C8.616 14.573 8.601 14.71 8.596 14.784C8.583 14.944 8.592 15.124 8.622 15.226C8.782 15.279 8.897 15.106 9.012 15.048C9.049 15.028 9.097 15.035 9.128 15.013C9.15 14.997 9.16 14.956 9.188 14.924C9.216 14.896 9.258 14.878 9.276 14.854C9.3 14.825 9.304 14.787 9.329 14.758C9.507 14.566 9.829 14.554 10.081 14.439C10.334 14.018 10.658 13.619 10.762 13.077ZM17.714 12.51C17.6601 12.5173 17.607 12.529 17.555 12.545L17.553 12.546C17.725 13.21 17.897 13.872 18.059 14.546C18.0557 14.5547 18.0497 14.5603 18.041 14.563C18.036 14.563 18.031 14.569 18.041 14.571C18.262 14.604 18.158 14.346 18.121 14.198C17.978 13.6371 17.8424 13.0744 17.714 12.51ZM10.894 12.326C10.759 12.366 10.61 12.369 10.496 12.416C10.374 12.463 10.276 12.551 10.186 12.609C10.105 12.66 10.021 12.692 9.947 12.758C9.879 12.818 9.819 12.884 9.744 12.944C9.677 12.997 9.589 13.044 9.514 13.103C9.434 13.165 9.37 13.245 9.292 13.278C9.255 13.294 9.207 13.3 9.168 13.314C8.998 13.374 8.848 13.48 8.648 13.534L8.647 13.537C8.587 13.729 8.677 13.993 8.647 14.217C9.169 14.097 9.481 13.767 9.857 13.502C10.1165 13.2095 10.4546 12.9978 10.831 12.892C10.851 12.707 10.903 12.506 10.903 12.326H10.894ZM11.042 11.536C10.693 11.506 10.478 11.623 10.22 11.686C10.041 11.729 9.86 11.75 9.69 11.784C9.59 11.804 9.495 11.859 9.406 11.889C9.298 11.928 9.204 11.932 9.096 11.952C8.771 12.009 8.579 12.205 8.353 12.385C8.207 12.502 8.063 12.605 7.973 12.721C7.915 12.793 7.882 12.862 7.805 12.907C7.999 13.019 8.201 13.125 8.389 13.242L8.39 13.24C8.53 13.128 8.704 13.048 8.858 12.949C8.914 12.914 8.958 12.861 9.008 12.843C9.082 12.816 9.16 12.813 9.229 12.79C9.365 12.743 9.486 12.667 9.609 12.622C9.679 12.596 9.75 12.586 9.813 12.551C9.957 12.467 10.093 12.314 10.211 12.206C10.271 12.152 10.342 12.109 10.414 12.056C10.482 12.008 10.564 11.949 10.635 11.916C10.76 11.858 10.93 11.839 11.007 11.756C11.014 11.676 11.031 11.61 11.042 11.536ZM10.406 10.942C10.071 10.971 9.741 10.952 9.424 10.977C9.243 10.991 9.047 11.045 8.858 11.075C8.459 11.141 8.175 11.274 7.885 11.429C7.733 11.511 7.577 11.575 7.46 11.669C7.279 11.812 7.175 12.013 7.071 12.234C7.141 12.338 7.22 12.433 7.319 12.508C7.349 12.452 7.407 12.428 7.443 12.375C7.467 12.338 7.468 12.29 7.496 12.252L7.499 12.25C7.559 12.168 7.688 12.107 7.781 12.039C7.881 11.963 7.983 11.897 8.091 11.853C8.329 11.752 8.592 11.713 8.86 11.623C9.09 11.546 9.29 11.473 9.506 11.437C9.751 11.395 10.026 11.404 10.293 11.402C10.421 11.4 10.499 11.351 10.592 11.34C10.765 11.319 10.919 11.367 11.042 11.252C11.062 11.219 11.0772 11.1833 11.087 11.146C11.098 11.106 11.097 11.077 11.113 11.066C10.8903 10.9699 10.6481 10.9274 10.406 10.942ZM17.426 11.793C17.396 11.804 17.351 11.8 17.338 11.828C17.394 11.988 17.448 12.223 17.495 12.42C17.541 12.428 17.561 12.41 17.602 12.413C17.602 12.341 17.57 12.282 17.549 12.218C17.504 12.075 17.48 11.93 17.426 11.793ZM19.047 10.511C18.975 10.527 18.913 10.551 18.889 10.617C18.949 10.707 18.953 10.936 18.916 11.024C18.879 11.0829 18.8273 11.1312 18.766 11.164C18.495 11.314 17.961 11.386 17.758 11.59C17.679 11.669 17.616 11.884 17.712 12.014C17.733 11.896 17.77 11.75 17.872 11.687C18.121 11.538 18.493 11.425 18.775 11.29C18.875 11.242 18.995 11.2 19.057 11.14C19.175 11.023 19.197 10.695 19.065 10.511H19.047ZM9.424 9.793C9.297 9.809 9.104 9.793 8.972 9.846C8.916 9.868 8.88 9.914 8.821 9.934C8.646 9.991 8.463 10.004 8.291 9.994C8.197 9.99 8.095 9.952 7.981 9.96C7.863 9.968 7.748 10.032 7.664 10.066C7.616 10.083 7.566 10.091 7.531 10.108C7.453 10.15 7.393 10.224 7.31 10.26C7.129 10.34 6.913 10.432 6.815 10.56C6.8 10.58 6.776 10.635 6.752 10.676C6.70169 10.7636 6.66844 10.86 6.654 10.96C6.634 11.18 6.68 11.442 6.752 11.588C6.781 11.455 6.866 11.397 6.938 11.306L6.941 11.304C7.074 11.131 7.214 11.046 7.391 10.924C7.503 10.846 7.604 10.758 7.726 10.701C7.922 10.611 8.196 10.545 8.451 10.491C8.717 10.431 9.004 10.378 9.255 10.357C9.547 10.335 9.739 10.384 9.989 10.455C10.159 10.502 10.339 10.539 10.477 10.598C10.504 10.611 10.527 10.638 10.555 10.65C10.8 10.751 11.125 10.807 11.377 10.854C11.431 10.864 11.488 10.874 11.537 10.88C11.71 10.896 11.843 10.855 11.97 10.844C12.128 10.83 12.294 10.832 12.403 10.729C12.286 10.724 12.163 10.735 12.041 10.721C11.906 10.704 11.733 10.689 11.626 10.641C11.556 10.61 11.488 10.513 11.405 10.482C11.37 10.472 11.321 10.481 11.272 10.465C11.172 10.436 11.054 10.351 10.945 10.279C10.8399 10.2109 10.7307 10.1495 10.618 10.095C10.43 10.006 10.222 9.985 10.017 9.925C9.854 9.878 9.657 9.765 9.424 9.793ZM1.796 11.21C1.759 11.203 1.681 11.185 1.646 11.245C1.774 11.212 1.853 11.323 1.956 11.361H1.957C2.045 11.393 2.152 11.358 2.258 11.396C2.228 11.334 2.123 11.359 2.045 11.333C1.968 11.309 1.891 11.224 1.796 11.21ZM2.59 11.332C2.555 11.307 2.479 11.26 2.439 11.314C2.509 11.389 2.679 11.364 2.794 11.394C2.749 11.35 2.667 11.345 2.59 11.332ZM2.394 10.872C2.37 10.872 2.327 10.861 2.324 10.907C2.492 10.907 2.558 11.071 2.67 11.156H2.668C2.781 11.241 2.922 11.226 3.05 11.306C2.99 11.23 2.883 11.202 2.794 11.156C2.707 11.077 2.571 10.873 2.394 10.872ZM17.519 10.812C17.234 10.836 17.296 11.314 17.544 11.297C17.792 11.281 17.815 10.787 17.519 10.812ZM2.068 10.622C1.971 10.59 1.901 10.418 1.758 10.507C1.792 10.535 1.828 10.52 1.864 10.542C1.946 10.592 1.973 10.7 2.094 10.71C2.189 10.718 2.476 10.654 2.556 10.773C2.566 10.783 2.588 10.783 2.609 10.783C2.765 10.883 2.834 11.073 3.052 11.111C3.151 11.173 3.237 11.249 3.38 11.27C3.251 11.174 3.116 11.113 2.999 11.021C2.84 10.896 2.699 10.598 2.431 10.595C2.325 10.594 2.176 10.659 2.068 10.622ZM2.263 11.031C2.183 11.001 2.032 10.927 1.961 11.013C2.064 10.983 2.173 11.096 2.235 11.076L2.237 11.074C2.263 11.17 2.465 11.164 2.574 11.207C2.495 11.14 2.364 11.127 2.281 11.067C2.271 11.058 2.281 11.047 2.263 11.031ZM1.975 11.103C1.733 11.002 1.535 10.583 1.176 10.767C1.556 10.783 1.624 11.058 1.975 11.103ZM2.296 10.313C2.33 10.533 2.604 10.483 2.748 10.579C2.941 10.705 3.025 10.963 3.246 11.049C3.082 10.877 2.938 10.683 2.786 10.499C2.709 10.476 2.649 10.414 2.545 10.401C2.425 10.387 2.343 10.401 2.298 10.313H2.296ZM18.652 10.255C18.4578 10.281 18.2619 10.2927 18.066 10.29C18.177 10.36 18.365 10.353 18.519 10.38C18.386 10.444 18.147 10.422 17.979 10.406C18.142 10.499 18.387 10.512 18.573 10.582C18.362 10.648 18.094 10.558 17.9 10.519C18.064 10.67 18.3 10.744 18.6 10.759C18.557 10.891 18.342 10.812 18.21 10.812C18.309 10.922 18.529 10.909 18.655 10.989C18.693 10.967 18.751 10.962 18.771 10.919L18.767 10.92C18.709 10.717 18.711 10.456 18.652 10.255ZM1.882 10.723C1.728 10.663 1.64 10.385 1.395 10.483C1.52187 10.5256 1.63277 10.6059 1.713 10.713C1.753 10.76 1.764 10.816 1.828 10.847C1.841 10.853 1.88 10.845 1.898 10.854C1.912 10.861 1.914 10.879 1.925 10.882C2.018 10.906 2.134 10.901 2.254 10.917C2.137 10.845 1.928 10.864 1.881 10.721L1.882 10.723ZM5.561 10.516C5.51217 10.5558 5.47497 10.608 5.45332 10.6671C5.43167 10.7262 5.42638 10.7901 5.438 10.852C5.511 10.83 5.552 10.778 5.616 10.747C5.546 10.685 5.588 10.597 5.561 10.517V10.516ZM5.978 10.084C5.894 10.204 5.811 10.326 5.828 10.544C5.902 10.514 5.952 10.456 6.013 10.411C5.941 10.326 6.023 10.177 5.978 10.084ZM8.236 8.494C8.14 8.473 8.059 8.589 7.962 8.6C7.899 8.606 7.828 8.577 7.768 8.59C7.699 8.607 7.636 8.699 7.574 8.758C7.378 8.948 7.217 9.176 7.106 9.404L7.11 9.409C6.898 9.374 6.722 9.655 6.86 9.832C6.894 9.814 6.917 9.77 6.94 9.814C7.199 9.594 7.486 9.399 7.763 9.195C7.906 9.149 8.018 9.1 8.161 9.09C8.292 9.08 8.416 9.119 8.551 9.108C8.645 9.098 8.744 9.098 8.851 9.098C9.095 9.098 9.351 9.075 9.584 9.115C9.704 9.135 9.837 9.188 9.964 9.221C10.2103 9.27926 10.4441 9.38157 10.654 9.523C10.758 9.593 10.876 9.638 10.972 9.699C11.1 9.782 11.191 9.906 11.316 9.993C11.38 10.036 11.459 10.059 11.528 10.106C11.598 10.152 11.669 10.197 11.741 10.231C11.898 10.305 12.091 10.297 12.289 10.345C12.489 10.393 12.71 10.51 12.943 10.478C13.036 10.463 13.078 10.409 13.137 10.371C13.242 10.302 13.369 10.247 13.456 10.149C13.376 10.176 13.293 10.139 13.217 10.122C13.134 10.102 13.05 10.093 12.969 10.077C12.7114 10.0223 12.4615 9.93596 12.225 9.82C12.03 9.726 11.828 9.622 11.632 9.547C11.525 9.505 11.43 9.449 11.322 9.388C10.935 9.168 10.514 9.016 10.086 8.84C9.879 8.753 9.626 8.657 9.369 8.68C9.267 8.69 9.167 8.74 9.068 8.75C8.86445 8.75372 8.6624 8.71454 8.475 8.635C8.393 8.596 8.339 8.516 8.236 8.494ZM19.054 9.704C18.9379 9.74771 18.8123 9.75979 18.69 9.739C18.698 9.775 18.673 9.781 18.672 9.809C18.789 9.83 18.934 9.837 19.046 9.837C18.989 9.931 18.848 9.922 18.71 9.917C18.76 10.023 18.96 9.977 19.09 10.005C19.049 10.105 18.902 10.1 18.764 10.103C18.802 10.225 19.024 10.151 19.126 10.191C19.089 10.291 18.953 10.247 18.851 10.271C18.936 10.351 19.157 10.329 19.25 10.271C19.2472 10.2441 19.2499 10.2169 19.258 10.191C19.16 10.059 19.113 9.877 19.054 9.704ZM6.518 9.687C6.338 9.78 6.175 9.967 6.234 10.242C6.341 10.205 6.42 10.14 6.526 10.102C6.459 10.024 6.487 9.845 6.473 9.757C6.491 9.741 6.543 9.715 6.518 9.687ZM17.844 6.787C17.694 6.841 17.498 6.864 17.323 6.867L17.325 6.869C17.175 7.053 17.055 7.271 17.068 7.621C17.138 7.677 17.215 7.617 17.28 7.593C17.28 7.497 17.312 7.393 17.368 7.276C17.416 7.176 17.493 6.91 17.581 7.072C17.522 7.168 17.521 7.332 17.536 7.479C17.618 7.495 17.73 7.54 17.81 7.585C17.808 7.667 17.817 7.785 17.873 7.834C17.901 7.848 17.948 7.844 17.979 7.859C18.009 7.907 18.003 7.979 17.986 8.045C18.056 8.04 18.104 8.015 18.172 8.009C18.204 8.032 18.221 8.069 18.235 8.108C18.206 8.186 18.063 8.189 18.049 8.302C18.043 8.352 18.079 8.41 18.085 8.46C18.115 8.727 18.009 8.986 17.908 9.159C17.881 9.332 18.01 9.399 18.006 9.539C18.002 9.635 17.923 9.712 17.891 9.813C17.856 9.923 17.881 10.026 17.846 10.149C18.064 10.197 18.339 10.2 18.57 10.157C18.453 9.784 18.553 9.343 18.545 9.001C18.4465 8.99462 18.3543 8.95015 18.288 8.877C18.37 8.827 18.48 8.803 18.57 8.761C18.56 8.707 18.546 8.655 18.545 8.593C18.435 8.556 18.298 8.55 18.208 8.495C18.237 8.387 18.388 8.396 18.474 8.345C18.501 8.23 18.494 8.058 18.482 7.929C18.508 7.877 18.548 7.839 18.545 7.762C18.428 7.701 18.264 7.798 18.172 7.849C17.955 7.608 18.72 7.553 18.535 7.319C18.4409 7.30055 18.3433 7.31652 18.26 7.364C18.139 7.428 18.062 7.578 17.952 7.603C17.916 7.524 17.998 7.433 18.057 7.355C18.115 7.279 18.185 7.195 18.243 7.143C18.286 7.101 18.383 7.047 18.383 6.993C18.385 6.893 18.244 6.859 18.11 6.859C17.983 6.939 17.929 7.09 17.853 7.222C17.823 7.223 17.81 7.244 17.773 7.239C17.769 7.284 17.771 7.336 17.728 7.344C17.598 7.275 17.755 7.147 17.791 7.044C17.808 6.991 17.802 6.924 17.817 6.874C17.827 6.841 17.858 6.813 17.844 6.787ZM9.724 7.6C9.479 7.728 9.264 7.888 8.965 7.962C9.05 8.04 9.1 8.095 9.205 8.121C9.363 8.158 9.547 8.041 9.709 8.093C9.754 8.107 9.809 8.178 9.867 8.216C9.981 8.29 10.133 8.336 10.212 8.402C10.236 8.425 10.246 8.458 10.272 8.482C10.316 8.519 10.431 8.588 10.477 8.615C10.719 8.756 11.004 8.851 11.281 8.968C11.422 9.026 11.547 9.116 11.678 9.18C11.821 9.249 11.974 9.305 12.121 9.358C12.27 9.411 12.427 9.472 12.589 9.498C12.765 9.529 12.939 9.577 13.102 9.606C13.171 9.616 13.28 9.606 13.358 9.614C13.504 9.63 13.801 9.67 13.942 9.622C14.055 9.582 14.136 9.428 14.225 9.366C13.972 9.242 13.665 9.263 13.411 9.162C13.33 9.13 13.265 9.068 13.19 9.039C12.962 8.952 12.693 8.968 12.473 8.879C12.364 8.836 12.273 8.759 12.173 8.729C12.071 8.7 11.972 8.703 11.88 8.686C11.793 8.66509 11.7074 8.63836 11.624 8.606C11.314 8.494 10.916 8.39 10.679 8.201C10.559 8.105 10.486 7.964 10.334 7.864C10.293 7.839 10.231 7.831 10.184 7.804C10.146 7.783 10.119 7.74 10.086 7.724C9.976 7.671 9.838 7.668 9.724 7.6ZM10.632 6.813C10.461 6.922 10.371 7.117 10.2 7.228C10.2993 7.3 10.4173 7.35267 10.554 7.386C10.715 7.486 10.861 7.608 11.023 7.723C11.073 7.76 11.139 7.783 11.192 7.821C11.268 7.878 11.328 7.97 11.412 8.024C11.489 8.074 11.587 8.114 11.677 8.165C11.76 8.213 11.848 8.287 11.933 8.325C11.991 8.35 12.071 8.353 12.145 8.377C12.21 8.397 12.275 8.427 12.34 8.447C12.624 8.541 12.898 8.571 13.18 8.651C13.324 8.691 13.47 8.741 13.605 8.756C13.967 8.793 14.301 8.766 14.675 8.775C14.727 8.776 14.785 8.795 14.826 8.785C14.896 8.765 15.017 8.6 15.057 8.528C15.127 8.403 15.159 8.272 15.225 8.165C14.964 8.275 14.615 8.39 14.27 8.387C14.19 8.387 14.07 8.387 13.986 8.361C13.926 8.343 13.886 8.274 13.818 8.255C13.758 8.237 13.687 8.252 13.623 8.237C13.525 8.217 13.419 8.147 13.331 8.097C13.236 8.04 13.145 7.952 13.057 7.927C12.967 7.904 12.852 7.91 12.756 7.901C12.5626 7.88586 12.3703 7.85948 12.18 7.822C12.08 7.8 11.98 7.795 11.888 7.777C11.6799 7.73614 11.4782 7.66788 11.288 7.574C10.975 7.412 10.851 7.081 10.651 6.813H10.632ZM11.052 6.076C11.021 6.189 10.856 6.252 10.866 6.369C10.874 6.462 11.016 6.486 11.087 6.545C11.281 6.856 11.567 7.035 11.867 7.234C11.947 7.288 12.013 7.345 12.095 7.385C12.185 7.43 12.281 7.439 12.397 7.473C12.48 7.499 12.576 7.561 12.688 7.589C12.861 7.632 13.054 7.615 13.193 7.686C13.325 7.753 13.423 7.909 13.547 7.996C13.645 7.986 13.693 8.076 13.769 8.102C14.023 8.186 14.301 8.09 14.582 8.075C14.541 7.842 14.609 7.63 14.6 7.437C14.598 7.393 14.573 7.343 14.575 7.297C14.581 7.172 14.765 7.017 14.822 6.882C14.844 6.827 14.842 6.753 14.866 6.722C14.912 6.66 15.081 6.657 15.035 6.529C14.9858 6.49511 14.9264 6.47919 14.8669 6.48392C14.8073 6.48866 14.7512 6.51376 14.708 6.555C14.633 6.625 14.588 6.732 14.504 6.846C14.427 6.953 14.352 7.034 14.31 7.156C14.251 7.324 14.323 7.362 14.336 7.483C14.34 7.519 14.325 7.567 14.328 7.616C14.334 7.737 14.384 7.827 14.31 7.889C14.219 7.938 14.169 7.883 14.071 7.872C14.057 7.749 13.961 7.696 13.895 7.625C13.85 7.579 13.821 7.509 13.78 7.467C13.62 7.307 13.307 7.193 13.038 7.22C12.998 7.223 12.96 7.247 12.914 7.247C12.831 7.247 12.751 7.183 12.676 7.167C12.492 7.13 12.294 7.125 12.145 7.061C12.041 7.016 11.969 6.884 11.853 6.814C11.803 6.784 11.743 6.771 11.703 6.744C11.589 6.664 11.525 6.534 11.42 6.46C11.333 6.30981 11.2117 6.18233 11.066 6.088C11.066 6.082 11.06 6.078 11.059 6.078L11.052 6.076ZM15.286 6.618C15.214 6.75 15.018 6.84 14.959 6.99C14.929 7.066 14.918 7.152 14.879 7.237C14.765 7.494 14.783 7.731 14.791 8.051C14.937 8.046 15.065 8.024 15.145 7.956V7.954C15.089 7.736 15.087 7.553 15.082 7.317C15.174 7.252 15.158 7.12 15.215 7.034C15.232 7.008 15.27 7.004 15.285 6.981C15.305 6.955 15.298 6.912 15.314 6.883C15.344 6.827 15.394 6.795 15.419 6.742C15.395 6.682 15.326 6.665 15.286 6.618ZM16.426 6.85C16.288 6.8 16.236 6.96 16.108 6.975C16.048 7.233 15.9 7.531 15.985 7.849C16.081 7.854 16.161 7.842 16.241 7.832C16.334 7.534 16.314 7.128 16.426 6.85ZM15.765 6.823C15.573 6.92 15.49 7.033 15.403 7.249C15.334 7.415 15.321 7.591 15.341 7.806C15.437 7.876 15.629 7.846 15.746 7.815H15.748C15.708 7.455 15.77 7.17 15.783 6.823H15.765ZM16.987 6.956C16.942 6.909 16.824 6.912 16.757 6.937V6.939C16.627 7.16 16.491 7.422 16.534 7.787C16.669 7.793 16.756 7.754 16.871 7.742C16.851 7.454 16.919 7.183 16.987 6.956ZM11.519 5.41C11.515 5.592 11.332 5.594 11.297 5.744C11.47 5.805 11.573 5.934 11.694 6.045C11.733 6.172 11.864 6.252 11.986 6.337C12.191 6.481 12.363 6.582 12.596 6.691C12.71 6.746 12.829 6.815 12.931 6.842C13.162 6.907 13.351 6.932 13.524 7.01C13.689 7.084 13.871 7.13 13.967 7.222C13.985 7.238 13.996 7.291 14.03 7.275C14.017 7.169 14.078 7.108 14.126 7.027C14.163 6.966 14.19 6.898 14.223 6.858C14.295 6.773 14.421 6.748 14.463 6.645C14.272 6.69 14.114 6.665 13.913 6.645C13.791 6.634 13.652 6.635 13.553 6.609C13.459 6.585 13.324 6.469 13.233 6.459C13.195 6.454 13.148 6.479 13.11 6.476C12.988 6.466 12.908 6.374 12.809 6.334C12.753 6.313 12.691 6.317 12.649 6.299C12.6 6.279 12.533 6.219 12.473 6.176C12.283 6.039 11.996 5.908 11.908 5.724C11.764 5.64 11.688 5.489 11.536 5.414C11.5347 5.40867 11.5287 5.406 11.518 5.406L11.519 5.41ZM13.323 4.196C13.168 4.228 13.077 4.326 12.91 4.347C12.99 4.834 13.462 5.035 13.802 5.327C13.861 5.379 13.902 5.447 13.961 5.496C14.018 5.544 14.088 5.574 14.137 5.636C14.173 5.681 14.188 5.738 14.225 5.778C14.309 5.869 14.432 5.923 14.545 5.973C14.668 6.026 14.818 6.049 14.925 6.115C14.953 6.135 14.971 6.172 15.005 6.195C15.033 6.214 15.075 6.215 15.109 6.239C15.249 6.329 15.357 6.465 15.489 6.486C15.555 6.496 15.637 6.466 15.703 6.469C15.596 6.257 15.318 6.199 15.092 6.071C14.94 5.986 14.839 5.857 14.702 5.788C14.702 5.69 14.612 5.683 14.552 5.646C14.427 5.5585 14.3143 5.45457 14.217 5.337C14.1436 5.25381 14.1028 5.14692 14.102 5.036C13.948 4.839 13.742 4.695 13.544 4.541C13.48 4.416 13.395 4.312 13.324 4.196H13.323ZM12.456 4.654C12.302 4.755 12.123 4.829 11.986 4.946C12.058 5.186 12.216 5.316 12.393 5.451C12.69 5.679 13.01 5.891 13.286 6.115C13.49 6.187 13.688 6.291 13.95 6.318C14.222 6.345 14.57 6.306 14.799 6.362C14.786 6.255 14.659 6.256 14.579 6.238C14.472 6.214 14.4 6.162 14.322 6.14C14.282 6.129 14.23 6.138 14.189 6.123C14.153 6.11 14.109 6.065 14.065 6.035C14.014 6.001 13.955 5.989 13.914 5.963C13.879 5.943 13.861 5.898 13.826 5.885C13.728 5.848 13.608 5.874 13.516 5.84L12.473 4.664C12.463 4.664 12.456 4.654 12.456 4.654ZM14.453 3.736C14.351 3.805 14.253 3.879 14.126 3.922C14.149 3.999 14.216 4.039 14.249 4.098C14.321 4.228 14.341 4.376 14.39 4.515C14.414 4.579 14.438 4.625 14.453 4.691C14.468 4.757 14.475 4.828 14.497 4.887C14.605 5.166 14.881 5.297 15.046 5.505C15.141 5.624 15.212 5.763 15.329 5.875C15.458 6.001 15.605 6.087 15.781 6.159C15.969 6.1 16.047 6.288 16.241 6.282C16.2285 6.21828 16.2285 6.15272 16.241 6.089C16.187 6.026 16.134 6.004 16.073 5.975C15.999 5.938 15.93 5.943 15.843 5.912C15.665 5.852 15.652 5.64 15.569 5.47C15.546 5.424 15.517 5.39 15.498 5.355L15.472 5.311C15.387 5.196 15.266 5.087 15.172 4.965C15.075 4.844 14.962 4.702 14.915 4.575C14.885 4.495 14.878 4.411 14.852 4.329C14.772 4.084 14.664 3.866 14.48 3.719C14.4701 3.72319 14.461 3.72892 14.453 3.736ZM20.141 5.568C20.066 5.646 19.911 5.693 19.927 5.832C20.02 5.816 20.047 5.732 20.141 5.717C20.138 5.674 20.179 5.591 20.141 5.568ZM21.016 5.062L21.014 5.06C20.94 5.07 20.774 5.236 20.776 5.29C20.777 5.323 20.818 5.36 20.837 5.397C20.9 5.518 20.923 5.68 20.989 5.784C21.072 5.788 21.137 5.844 21.227 5.811C21.374 5.614 21.085 5.435 21.192 5.221C21.155 5.131 21.126 5.047 21.016 5.062ZM19.785 5.627L19.783 5.625V5.627H19.785ZM20.317 4.867C20.15 4.818 19.919 4.859 19.769 4.911C19.6918 4.94353 19.6267 4.9995 19.583 5.071C19.471 5.303 19.639 5.503 19.785 5.625C19.901 5.459 20.015 5.297 20.21 5.22C20.253 5.204 20.292 5.207 20.325 5.177C20.405 5.101 20.372 4.959 20.44 4.858C20.389 4.834 20.374 4.875 20.317 4.867ZM20.387 5.318C20.3509 5.34281 20.3077 5.35511 20.264 5.353C20.252 5.398 20.234 5.437 20.219 5.477C20.261 5.529 20.311 5.575 20.405 5.575C20.466 5.52 20.462 5.357 20.387 5.318ZM15.472 3.266C15.422 3.281 15.389 3.311 15.349 3.336C15.201 3.342 15.089 3.454 14.959 3.506C15.028 3.63 15.147 3.774 15.206 3.92C15.226 3.97 15.229 4.031 15.251 4.081C15.301 4.187 15.375 4.299 15.437 4.418C15.495 4.528 15.567 4.645 15.641 4.744C15.865 5.046 16.089 5.371 16.462 5.496C16.534 5.199 16.384 4.939 16.215 4.798C16.18 4.685 16.095 4.611 16.03 4.515C15.979 4.438 15.936 4.325 15.888 4.222C15.7836 4.00218 15.7064 3.77048 15.658 3.532C15.5865 3.45396 15.5293 3.36392 15.489 3.266H15.472ZM18.566 1.756C18.5251 1.94208 18.5412 2.13615 18.612 2.313C18.652 2.425 18.716 2.526 18.745 2.666C18.783 2.855 18.845 3.17 18.727 3.346C18.677 3.42 18.592 3.462 18.541 3.525C18.4768 3.59661 18.4232 3.6771 18.382 3.764C18.305 3.954 18.307 4.251 18.286 4.498C18.28 4.571 18.264 4.65 18.321 4.711C18.321 4.464 18.606 4.381 18.648 4.135C18.658 4.075 18.644 4.015 18.658 3.958C18.695 3.821 18.805 3.678 18.914 3.64C19.042 3.594 19.284 3.643 19.472 3.614C19.536 3.604 19.628 3.561 19.685 3.561C19.7269 3.56254 19.7679 3.57382 19.8047 3.59396C19.8415 3.61409 19.8731 3.64253 19.897 3.677C19.947 3.739 19.983 3.829 20.003 3.888C19.913 3.885 19.836 3.834 19.746 3.828C19.546 3.813 19.19 3.838 19.03 3.916C18.876 3.993 18.822 4.231 18.729 4.393C18.631 4.562 18.489 4.679 18.543 4.889C18.631 4.9 18.715 4.922 18.79 4.924C18.88 4.818 18.973 4.85 19.046 4.72C19.131 4.571 19.051 4.337 19.187 4.243C19.25 4.2 19.32 4.198 19.416 4.173C19.4995 4.10308 19.5999 4.05638 19.7072 4.0376C19.8144 4.01881 19.9247 4.02861 20.027 4.066C20.11 4.148 20.208 4.254 20.283 4.34C20.306 4.367 20.364 4.4 20.336 4.438C20.249 4.405 20.16 4.409 20.08 4.376C20.042 4.361 20.02 4.323 19.982 4.315C19.929 4.305 19.822 4.335 19.742 4.332C19.698 4.331 19.657 4.313 19.628 4.315C19.516 4.323 19.5 4.379 19.434 4.438C19.396 4.472 19.339 4.498 19.318 4.526C19.262 4.603 19.23 4.718 19.176 4.81C19.12 4.904 19.051 4.988 19.026 5.084C19.075 5.13 19.121 5.126 19.211 5.129C19.323 5.063 19.396 4.935 19.476 4.838C19.558 4.738 19.712 4.615 19.837 4.588C19.867 4.584 19.902 4.592 19.936 4.588C19.971 4.586 20.011 4.563 20.041 4.563C20.083 4.561 20.128 4.586 20.174 4.589C20.212 4.592 20.25 4.579 20.29 4.581C20.413 4.589 20.514 4.678 20.626 4.686C20.726 4.279 20.405 4.071 20.236 3.794C20.112 3.589 20.104 3.377 20.069 3.069C19.979 2.969 20.001 2.828 19.963 2.707C19.933 2.61 19.844 2.57 19.769 2.504C19.692 2.437 19.65 2.351 19.583 2.292C19.503 2.167 19.523 2.024 19.495 1.85C19.442 1.832 19.382 1.821 19.326 1.807V1.801C19.203 1.941 19.136 2.106 19.229 2.303C19.307 2.473 19.464 2.614 19.644 2.605C19.666 2.685 19.757 2.693 19.784 2.745C19.714 2.98 19.891 3.092 19.883 3.321C19.813 3.425 19.591 3.388 19.503 3.329C19.4463 3.36101 19.3826 3.37844 19.3175 3.37973C19.2524 3.38102 19.1881 3.36612 19.1302 3.33638C19.0723 3.30664 19.0227 3.26298 18.9858 3.20933C18.9489 3.15568 18.926 3.09371 18.919 3.029C19.107 3.102 19.289 2.852 19.485 2.905C19.532 2.918 19.555 2.994 19.583 2.975C19.572 2.903 19.597 2.842 19.61 2.772C19.424 2.632 19.25 2.802 19.035 2.824C18.979 2.665 19.027 2.497 18.975 2.356C18.948 2.289 18.881 2.246 18.868 2.18C18.848 2.066 18.909 1.983 18.895 1.861C18.7943 1.88899 18.6866 1.87642 18.595 1.826C18.586 1.802 18.582 1.773 18.566 1.756ZM15.924 2.96C15.864 2.995 15.727 3.048 15.711 3.119C15.701 3.162 15.764 3.259 15.799 3.322C15.924 3.534 16.134 3.647 16.251 3.817C16.307 3.9 16.336 4.008 16.384 4.101C16.527 4.383 16.712 4.638 16.932 4.808C17.042 4.823 17.091 4.92 17.179 4.932C17.267 4.694 17.038 4.575 16.985 4.392C16.969 4.38 16.929 4.391 16.922 4.367C16.692 4.082 16.662 3.673 16.462 3.349C16.353 3.171 16.326 2.952 16.206 2.792H16.188C16.104 2.845 16.036 2.894 15.924 2.96ZM18.248 1.43C18.178 1.476 18.097 1.513 18.026 1.56V1.508C17.977 1.518 17.988 1.58 17.956 1.587C17.914 1.807 17.823 1.968 17.859 2.17C17.875 2.26 17.955 2.316 17.982 2.4C18.019 2.52 17.98 2.649 18.007 2.775L18.009 2.777C18.011 2.761 18.028 2.747 18.029 2.764C18.0333 2.93387 18.012 3.10342 17.966 3.267C17.932 3.383 17.87 3.486 17.851 3.597C17.804 3.877 17.775 4.397 17.966 4.453C17.974 4.497 18.022 4.543 18.054 4.533C17.819 4.194 17.951 3.768 18.16 3.489C18.286 3.316 18.435 3.15 18.46 2.949C18.483 2.753 18.416 2.65 18.353 2.541C18.315 2.476 18.236 2.402 18.22 2.338C18.2 2.256 18.236 2.152 18.22 2.056C18.215 2.027 18.192 1.995 18.186 1.968C18.13 1.759 18.221 1.608 18.266 1.438C18.264 1.43133 18.258 1.42933 18.248 1.43ZM16.781 2.365C16.641 2.47967 16.4937 2.586 16.339 2.684C16.488 2.929 16.783 3.091 16.887 3.383C16.902 3.421 16.898 3.465 16.914 3.507C16.972 3.655 17.097 3.776 17.126 3.949C17.27 4.026 17.269 4.249 17.496 4.24C17.533 4.026 17.434 3.867 17.365 3.702C17.325 3.605 17.256 3.518 17.224 3.428C17.2 3.363 17.19 3.285 17.161 3.214C17.134 3.144 17.096 3.083 17.083 3.011C17.073 2.961 17.085 2.905 17.073 2.851C17.065 2.811 17.036 2.764 17.02 2.72C16.968 2.567 16.908 2.451 16.79 2.374C16.79 2.368 16.79 2.365 16.781 2.365ZM13.324 4.196L13.326 4.197L13.323 4.196H13.324ZM13.111 3.399C12.889 3.52 12.996 3.883 13.049 4.115C13.115 4.117 13.159 4.061 13.217 4.037C13.314 3.995 13.434 4 13.501 3.921C13.395 3.763 13.376 3.399 13.111 3.401V3.399ZM13.503 2.959C13.416 3.062 13.303 3.184 13.37 3.332C13.407 3.41 13.467 3.489 13.503 3.596C13.54 3.706 13.559 3.811 13.573 3.913C13.736 3.835 13.946 3.775 14.121 3.683C13.954 3.6 13.93 3.388 13.801 3.267C13.699 3.171 13.524 3.155 13.545 2.957H13.501L13.503 2.959ZM13.898 2.729C13.865 2.839 13.795 2.915 13.792 3.056C13.956 3.206 14.116 3.448 14.137 3.684C14.293 3.609 14.458 3.544 14.597 3.454C14.387 3.189 14.111 2.99 13.898 2.729ZM14.411 2.535C14.386 2.582 14.419 2.636 14.411 2.694C14.323 2.704 14.267 2.745 14.18 2.756C14.182 2.862 14.299 2.878 14.349 2.95C14.406 3.033 14.443 3.119 14.507 3.199C14.5683 3.27633 14.6277 3.356 14.685 3.438C14.8263 3.36533 14.9677 3.294 15.109 3.224C14.951 2.929 14.689 2.737 14.439 2.535H14.411ZM17.523 1.765C17.4776 1.77631 17.4352 1.79714 17.3984 1.8261C17.3617 1.85506 17.3316 1.8915 17.31 1.933C17.241 1.995 17.107 2.024 17.081 2.119C17.043 2.255 17.145 2.362 17.169 2.481C17.176 2.505 17.214 2.495 17.214 2.526C17.368 2.812 17.484 3.139 17.647 3.418C17.672 3.081 17.813 2.772 17.692 2.49C17.664 2.428 17.61 2.37 17.576 2.314C17.478 2.152 17.43 1.947 17.523 1.766V1.765ZM14.879 2.34C14.8232 2.35798 14.7719 2.38802 14.729 2.428C14.754 2.572 14.857 2.691 14.939 2.808C15.023 2.928 15.121 3.04 15.196 3.162C15.358 3.064 15.537 2.982 15.674 2.862C15.546 2.698 15.39 2.562 15.259 2.402C15.092 2.379 15.059 2.224 14.905 2.188C14.897 2.238 14.89 2.291 14.879 2.338V2.34ZM19.317 3C19.201 3.039 19.293 3.16 19.362 3.141C19.437 3.121 19.43 2.963 19.317 3ZM15.357 1.755C15.34 1.877 15.268 1.945 15.223 2.039C15.253 2.199 15.363 2.257 15.463 2.339C15.602 2.452 15.746 2.656 15.869 2.763C16.026 2.693 16.118 2.557 16.259 2.472C15.989 2.201 15.789 1.862 15.356 1.755H15.357ZM16.117 1.347C16.006 1.382 15.921 1.441 15.815 1.48C15.825 1.539 15.841 1.588 15.85 1.647C16.082 1.817 16.216 2.13 16.373 2.347C16.528 2.281 16.626 2.157 16.763 2.073C16.616 1.762 16.432 1.489 16.116 1.348L16.117 1.347ZM16.787 0.782C16.691 0.902 16.438 0.865 16.31 0.952C16.39 1.13 16.598 1.185 16.602 1.438C16.62 1.465 16.657 1.472 16.672 1.501C16.724 1.685 16.836 1.809 16.876 2.004C17.007 1.889 17.168 1.8 17.293 1.677C17.263 1.552 17.185 1.462 17.123 1.385C17.078 1.325 17.035 1.241 16.992 1.165C16.95 1.089 16.889 1.005 16.876 0.925C16.863 0.84 16.866 0.803 16.787 0.782ZM19.035 0.375C19.008 0.44 18.948 0.472 18.884 0.499C18.726 0.76 18.487 1.076 18.585 1.481C18.631 1.496 18.613 1.575 18.69 1.56C18.704 1.496 18.655 1.446 18.655 1.383C18.652 1.231 18.789 1.075 18.795 0.904C18.799 0.811 18.747 0.751 18.831 0.684C18.921 0.698 18.897 0.801 18.911 0.869C18.929 0.959 18.987 1.063 18.974 1.162C18.979 1.202 18.927 1.186 18.929 1.225C18.972 1.433 18.829 1.533 18.796 1.693C18.988 1.59 19.198 1.457 19.15 1.163C19.137 1.089 19.095 1.018 19.08 0.932C19.0454 0.751161 19.036 0.566416 19.052 0.383C19.0513 0.377 19.0457 0.374333 19.035 0.375ZM19.53 0.587C19.523 0.604 19.491 0.6 19.477 0.613C19.475 0.747 19.387 0.797 19.299 0.843C19.322 0.991 19.372 1.193 19.352 1.373C19.346 1.426 19.312 1.482 19.317 1.525C19.328 1.622 19.434 1.64 19.511 1.675C19.517 1.621 19.533 1.574 19.528 1.507C19.57 1.499 19.598 1.476 19.626 1.454C19.625 1.426 19.633 1.388 19.618 1.374C19.731 1.212 19.808 1.016 19.98 0.914C19.917 0.869 19.807 0.874 19.706 0.869C19.68 0.745 19.6 0.672 19.53 0.587ZM17.53 0.34C17.4072 0.486711 17.2536 0.604513 17.08 0.685H17.078C17.062 0.741 17.121 0.725 17.121 0.765C17.134 0.887 17.181 0.941 17.237 1.047C17.272 1.114 17.293 1.178 17.317 1.25C17.33 1.29 17.51 1.5 17.537 1.507C17.635 1.531 17.727 1.432 17.821 1.409C17.7747 1.15545 17.7041 0.906958 17.61 0.667C17.67 0.559 17.645 0.387 17.53 0.34ZM18.725 0.223C18.642 0.1 18.529 0.276 18.433 0.303C18.321 0.273 18.195 0.246 18.063 0.215V0.383C17.868 0.51 18.041 0.848 17.975 1.029C18.026 1.093 18.003 1.256 18.036 1.311C18.041 1.298 18.026 1.267 18.046 1.268C18.041 1.315 18.054 1.345 18.056 1.383C18.118 1.375 18.15 1.343 18.206 1.329C18.267 1.252 18.25 1.097 18.365 1.073C18.35 0.997 18.403 0.957 18.418 0.904C18.426 0.869 18.416 0.827 18.426 0.79C18.482 0.576 18.734 0.481 18.725 0.223Z" fill="#9BC2F3"/>
<path id="Vector_2" d="M34.6628 13.7518V10.2298C34.6628 9.10881 34.4888 8.31981 33.6598 8.31981V8.25981H35.7098V8.32181C34.9678 8.32181 34.8598 9.10981 34.8598 10.2318V15.9438H34.7938L30.0398 9.16181V13.8658C30.0398 14.9458 30.2578 15.7558 31.0428 15.7558V15.8188H28.8838V15.7568C29.6258 15.7568 29.8438 14.9448 29.8438 13.8668V9.46281C29.8438 8.71381 29.4738 8.40281 28.8838 8.31981V8.25781H30.8468L34.6628 13.7518ZM51.8278 8.31981C51.0858 8.31981 51.0428 8.83981 51.0428 9.60881V13.3058C51.0428 14.9558 51.5768 15.6748 52.8748 15.6748C54.0958 15.6748 54.8808 14.9878 54.8808 13.3258V10.2328C54.8808 9.25681 54.7068 8.32281 53.9658 8.32281V8.25981H55.9288V8.32281C55.1868 8.32281 55.0788 9.25681 55.0788 10.2328V13.3278C55.0788 15.1138 54.2268 15.9448 52.5488 15.9448C50.8688 15.9448 49.8218 15.1558 49.8218 13.3688V9.60881C49.8218 8.83981 49.7778 8.32081 49.0358 8.32081V8.25881H51.8278V8.31981Z" fill="#9BC2F3"/>
<path id="Vector_3" fill-rule="evenodd" clip-rule="evenodd" d="M59.6696 8.25781C61.4146 8.25781 62.3736 9.02781 62.3736 10.2308C62.3736 11.2488 61.5766 11.8928 60.5966 12.1408V12.1618C60.9116 12.3388 61.1836 12.7538 61.4466 13.2318C62.5366 15.2258 62.7546 15.5898 63.2786 15.7558V15.8188C62.9306 15.8469 62.5817 15.8609 62.2326 15.8608C61.4476 15.8608 61.2516 15.5288 59.8986 12.7038C59.7136 12.3308 59.5286 12.2468 59.1786 12.2468H58.7326V14.4698C58.7326 15.2388 58.7756 15.7578 59.5176 15.7578V15.8208H56.7256V15.7578C57.4676 15.7578 57.5106 15.2388 57.5106 14.4698V9.60881C57.5106 8.83881 57.4676 8.31981 56.7256 8.31981V8.25781H59.6696ZM59.1466 8.42381C58.8866 8.42381 58.7326 8.54981 58.7326 8.79781V12.0808H59.4736C60.5536 12.0808 61.1096 11.4468 61.1106 10.3148C61.1106 9.18181 60.5976 8.42481 59.4856 8.42481L59.1466 8.42381Z" fill="#9BC2F3"/>
<path id="Vector_4" d="M82.5602 8.04788C83.1602 8.04788 84.0002 8.23488 84.5242 8.46288V9.81288H84.4582C83.9682 8.69188 83.3232 8.19288 82.4952 8.19288C81.6122 8.19288 81.0452 8.75388 81.0452 9.59488C81.0452 10.4369 81.7422 10.7899 82.4072 11.1019L82.9632 11.3619C83.9112 11.8089 84.8172 12.2959 84.8172 13.5729C84.8172 14.8499 83.7922 15.8589 82.2672 15.8589C81.6332 15.8589 80.6952 15.6829 80.1822 15.4329V15.4309L80.1172 13.7179H80.1822C80.6622 15.0269 81.4152 15.7109 82.4302 15.7109C83.2902 15.7109 84.0542 15.1609 84.0552 14.2169C84.0552 13.2709 83.2692 12.8769 82.3542 12.4499L81.7982 12.1899C81.0672 11.8479 80.2822 11.3599 80.2822 10.1969C80.2822 8.96088 81.2202 8.04688 82.5612 8.04688L82.5602 8.04788Z" fill="#9BC2F3"/>
<path id="Vector_5" fill-rule="evenodd" clip-rule="evenodd" d="M126.845 8.04688C129.004 8.04688 130.423 9.56388 130.423 11.9329C130.423 14.3009 128.983 15.8589 126.824 15.8589C124.665 15.8589 123.247 14.3419 123.247 11.9739C123.247 9.64688 124.686 8.04688 126.845 8.04688ZM126.823 8.19287C125.339 8.19287 124.598 9.79288 124.598 11.9529C124.598 14.1129 125.361 15.7129 126.845 15.7129C128.329 15.7129 129.07 14.1129 129.07 11.9529C129.07 9.85588 128.307 8.19287 126.823 8.19287Z" fill="#9BC2F3"/>
<path id="Vector_6" d="M109.267 8.04688C110.357 8.04688 111.122 8.35888 111.623 8.60888L111.689 10.0409H111.623C111.099 8.87788 110.359 8.19088 109.224 8.19088C107.785 8.19088 106.868 9.79088 106.868 11.9509C106.868 14.1119 107.806 15.7109 109.224 15.7109C110.359 15.7109 111.187 14.9839 111.709 13.6759H111.775L111.58 15.3379C110.858 15.6801 110.069 15.8577 109.269 15.8579C107.099 15.8579 105.517 14.3619 105.517 11.9729H105.515C105.516 9.64688 107.097 8.04688 109.267 8.04688ZM136.953 13.6659V10.1429C136.953 9.02088 136.778 8.23287 135.95 8.23287V8.17288H138V8.23488C137.258 8.23488 137.149 9.02288 137.149 10.1449V15.8559H137.083L132.329 9.07388V13.7789C132.329 14.8589 132.548 15.6689 133.333 15.6689V15.7309H131.174V15.6699C131.916 15.6699 132.134 14.8579 132.134 13.7799V9.37588C132.134 8.62688 131.764 8.31587 131.174 8.23287V8.17288H133.137L136.953 13.6659ZM48.2383 9.89988H48.1763C47.5763 8.68488 47.1953 8.42488 46.1473 8.42488H45.8093V14.4709C45.8093 15.2399 45.8523 15.7589 46.5943 15.7589V15.8219H43.8023V15.7589C44.5443 15.7589 44.5873 15.2399 44.5873 14.4709V8.42488H44.2493C43.2143 8.42488 42.8213 8.68488 42.2193 9.89988H42.1553L42.3073 8.25988H48.0873L48.2383 9.89988Z" fill="#9BC2F3"/>
<path id="Vector_7" fill-rule="evenodd" clip-rule="evenodd" d="M41.8497 14.4898C42.1657 15.3398 42.3837 15.7158 42.8417 15.7568V15.8198H40.0507V15.7568C40.6607 15.7158 40.8677 15.3208 40.6607 14.7698L40.0927 13.2428H37.6627L37.4447 13.8148C36.9857 15.0408 37.0627 15.6738 37.8047 15.7568V15.8198H35.9727V15.7568C36.4967 15.6948 36.7697 14.9988 37.2377 13.7518L39.3647 8.13281H39.4507L41.8497 14.4898ZM37.7497 12.9938H40.0067L38.8837 9.96181L37.7497 12.9938ZM69.3197 14.4898C69.6357 15.3398 69.8537 15.7158 70.3117 15.7568V15.8198H67.5197V15.7568C68.1297 15.7158 68.3367 15.3208 68.1297 14.7698L67.5627 13.2428H65.1317L64.9137 13.8148C64.4547 15.0408 64.5317 15.6738 65.2737 15.7568V15.8198H63.4417V15.7568C63.9667 15.6948 64.2397 14.9988 64.7067 13.7518L66.8337 8.13281H66.9197L69.3197 14.4898ZM65.2187 12.9938H67.4767L66.3527 9.96181L65.2187 12.9938Z" fill="#9BC2F3"/>
<path id="Vector_8" d="M73.6934 8.31988C72.9514 8.31988 72.9084 8.83988 72.9084 9.60888V15.1759C72.9084 15.4859 73.0064 15.6539 73.3324 15.6539H73.8024C74.9804 15.6539 75.5364 15.3219 76.2784 13.8259H76.3444L76.0604 15.8189H70.9034L70.9014 15.8199V15.7579C71.6434 15.7579 71.6874 15.2379 71.6874 14.4699V9.60888C71.6874 8.83888 71.6444 8.31988 70.9024 8.31988V8.25788H73.6934V8.31988ZM118.728 9.81288H118.665C118.066 8.59888 117.685 8.33888 116.637 8.33888H116.298V14.3849C116.298 15.1539 116.341 15.6729 117.084 15.6729V15.7359H114.292V15.6729C115.034 15.6729 115.077 15.1529 115.077 14.3849V8.33888H114.739C113.703 8.33888 113.311 8.59888 112.71 9.81388H112.644L112.796 8.17188H118.575L118.728 9.81288ZM91.3164 9.81288H91.2504C90.6504 8.59788 90.2474 8.33788 89.0484 8.33788H87.7504V11.7139H88.7424C89.7564 11.7139 90.0184 11.4539 90.2364 10.6839H90.3024V12.9909H90.2364C90.0184 12.2209 89.7564 11.8799 88.7424 11.8799H87.7504V15.0779C87.7504 15.3889 87.8484 15.5679 88.1864 15.5679H89.2014C90.3354 15.5679 90.8374 15.3379 91.5344 13.8959H91.6004L91.3384 15.7339H85.7454V15.6709C86.4874 15.6709 86.5314 15.1519 86.5314 14.3829V9.52288C86.5314 8.75288 86.4874 8.23388 85.7454 8.23388V8.17288H91.1754L91.3164 9.81288ZM95.2654 8.23388C94.5234 8.23388 94.4794 8.75388 94.4794 9.52288V15.0899C94.4794 15.3999 94.5784 15.5679 94.9054 15.5679H95.3754C96.5524 15.5679 97.1084 15.2339 97.8504 13.7379H97.9164L97.6324 15.7319H92.4744V15.7339V15.6709C93.2154 15.6709 93.2594 15.1519 93.2594 14.3829V9.52288C93.2594 8.75288 93.2154 8.23388 92.4744 8.23388V8.17288H95.2654V8.23388ZM104.348 9.81288H104.282C103.682 8.59788 103.278 8.33788 102.079 8.33788H100.781V11.7139H101.773C102.788 11.7139 103.049 11.4539 103.267 10.6839H103.333V12.9909H103.267C103.049 12.2209 102.788 11.8799 101.773 11.8799H100.781V15.0779C100.781 15.3889 100.88 15.5679 101.218 15.5679H102.231C103.366 15.5679 103.868 15.3379 104.565 13.8959H104.631L104.369 15.7339H98.7764V15.6709C99.5184 15.6709 99.5614 15.1519 99.5614 14.3829V9.52288C99.5614 8.75288 99.5184 8.23388 98.7764 8.23388V8.17288H104.206L104.348 9.81288ZM122.385 8.23388C121.643 8.23388 121.599 8.75388 121.599 9.52288V14.3829C121.599 15.1529 121.643 15.6709 122.385 15.6709V15.7339H119.594V15.6709C120.335 15.6709 120.379 15.1519 120.379 14.3829V9.52288C120.379 8.75288 120.335 8.23388 119.594 8.23388V8.17288H122.385V8.23388Z" fill="#9BC2F3"/>
</g>
</svg>
