<svg width="114" height="91" viewBox="0 0 114 91" fill="none" xmlns="http://www.w3.org/2000/svg">
<path d="M81.5086 38.7951L72.5452 1.92341C72.2687 0.798279 71.263 0 70.1001 0H44.5929C43.4301 0 42.4244 0.791993 42.1478 1.92341L33.417 37.8397C33.2347 38.5751 32.7319 39.1848 32.0467 39.5117C13.8121 48.299 0.976736 66.5777 0.00245915 87.9049C-0.0603974 89.3318 1.08988 90.5135 2.51672 90.5135H36.7861C37.9427 90.5135 38.9484 89.7215 39.225 88.5964L51.7146 37.7957C51.9849 36.7082 52.934 35.9288 54.0528 35.8785C54.87 35.8408 55.6871 35.822 56.5105 35.822C57.9311 35.822 59.3391 35.8785 60.7282 35.9854C61.8156 36.0671 62.7333 36.834 62.991 37.8962L75.4492 88.5901C75.7258 89.7152 76.7315 90.5072 77.8881 90.5072H110.492C111.925 90.5072 113.075 89.3129 113.012 87.8798C112.069 67.2754 100.045 49.5184 82.7783 40.4231C82.1372 40.0836 81.6594 39.4928 81.4897 38.7888L81.5086 38.7951ZM19.0983 88.6278H10.7886C9.34295 88.6278 8.19267 87.4084 8.27439 85.9627C9.27381 68.5451 14.3338 53.4155 27.2696 44.4585C29.1805 43.1322 31.7136 44.8482 31.1668 47.1047L21.5434 86.7107C21.2668 87.8358 20.2611 88.6341 19.0983 88.6341V88.6278ZM51.9534 31.8369L47.9306 4.77082C47.7043 3.24969 48.8797 1.8857 50.4197 1.8857H64.2796C65.8133 1.8857 66.995 3.24969 66.7687 4.77082L62.7333 31.9186C62.5385 33.2134 61.3882 34.1374 60.0871 34.0557C58.9116 33.9803 57.7237 33.9426 56.5231 33.9426C55.8568 33.9426 55.1968 33.9551 54.5431 33.9803C53.2608 34.0243 52.1483 33.1066 51.966 31.8431L51.9534 31.8369ZM93.1559 86.7044L83.8657 48.475C83.3063 46.1682 85.9651 44.427 87.8383 45.8853C99.5547 54.9744 103.848 69.444 104.766 85.969C104.847 87.4084 103.697 88.6278 102.251 88.6278H95.601C94.4382 88.6278 93.4325 87.8358 93.1559 86.7044Z" fill="#041121"/>
</svg>
